<?xml version="1.0" standalone="no"?>
<!DOCTYPE svg PUBLIC "-//W3C//DTD SVG 20010904//EN"
 "http://www.w3.org/TR/2001/REC-SVG-20010904/DTD/svg10.dtd">
<svg version="1.0" xmlns="http://www.w3.org/2000/svg"
 width="512.000000pt" height="512.000000pt" viewBox="0 0 512.000000 512.000000"
 preserveAspectRatio="xMidYMid meet">
<metadata>
Created by potrace 1.16, written by Peter Selinger 2001-2019
</metadata>
<g transform="translate(0.000000,512.000000) scale(0.100000,-0.100000)"
fill="#000000" stroke="none">
<path d="M1326 4828 c2 -161 8 -644 14 -1073 11 -799 28 -1506 37 -1515 3 -3
3 234 -1 525 -3 292 -8 877 -11 1300 -6 889 -11 1055 -30 1055 -11 0 -12 -56
-9 -292z"/>
<path d="M1415 4617 c-1 -307 2 -442 6 -347 9 220 10 850 2 850 -5 0 -8 -226
-8 -503z"/>
<path d="M1631 4843 c-18 -404 -29 -916 -37 -1693 l-7 -685 -39 -65 c-46 -77
-60 -125 -51 -171 3 -19 28 -88 55 -154 53 -132 67 -217 47 -286 -10 -30 -10
-42 -1 -51 16 -16 15 -85 -3 -133 -8 -22 -14 -57 -15 -78 0 -32 5 -41 30 -55
l30 -17 0 -155 c0 -146 12 -589 29 -1085 6 -178 8 -196 9 -94 1 70 -3 322 -9
560 -6 239 -8 512 -4 607 l7 172 38 0 c30 0 39 -4 43 -21 3 -11 2 -307 -3
-657 -12 -846 -12 -782 4 -782 11 0 14 71 20 382 3 211 9 535 13 720 l6 337
56 -39 c49 -32 58 -44 66 -81 8 -33 18 -49 42 -64 31 -19 32 -23 33 -82 0 -35
5 -65 12 -69 8 -5 9 -52 3 -178 -5 -94 -8 -217 -6 -274 1 -76 -2 -117 -15
-154 -16 -48 -15 -62 2 -155 5 -25 2 -32 -14 -38 -16 -4 -23 -18 -28 -53 -4
-26 -22 -83 -41 -127 -19 -44 -39 -90 -44 -102 l-9 -23 188 0 187 0 18 31 c9
17 17 42 17 56 0 14 13 40 29 59 30 33 51 88 51 132 0 12 11 44 24 70 13 26
29 65 36 87 27 84 169 367 181 360 6 -4 45 -76 86 -159 72 -148 78 -167 58
-217 -4 -10 4 -29 20 -48 23 -27 26 -37 20 -72 -6 -34 -3 -44 14 -63 l22 -23
-21 -101 c-11 -55 -20 -103 -20 -106 0 -3 78 -6 173 -6 l174 0 11 53 c18 81
24 119 26 162 1 22 6 48 10 57 4 9 2 33 -4 53 -9 28 -9 55 0 118 17 116 -8
494 -39 605 -6 19 -4 34 5 46 11 16 9 28 -12 83 -30 81 -30 93 0 138 14 20 28
56 32 80 5 39 0 56 -47 157 l-54 113 -3 114 c-3 102 21 319 54 489 4 21 9 17
49 -35 179 -235 188 -245 258 -285 38 -21 80 -41 93 -44 24 -6 24 -7 26 -153
l2 -146 3 143 4 142 24 0 c25 0 25 -1 25 -87 0 -93 -23 -591 -40 -858 -5 -88
-9 -207 -8 -265 l1 -105 8 140 c4 77 17 262 28 410 12 149 26 335 31 415 l9
145 -4 -170 c-2 -93 -9 -264 -14 -380 -5 -116 -15 -363 -21 -550 -5 -187 -12
-395 -15 -463 l-5 -122 34 0 34 0 6 132 c3 73 8 302 11 508 3 206 10 580 16
830 l11 455 47 45 c25 25 58 61 73 80 15 19 25 27 22 17 -4 -9 -3 -33 0 -53 7
-36 29 -51 98 -68 39 -9 64 20 72 80 6 48 22 493 30 874 7 290 -8 83 -28 -390
-9 -212 -19 -394 -21 -405 -2 -11 -2 42 0 118 2 99 0 137 -8 139 -7 0 -19 2
-27 2 -13 1 -15 29 -11 201 2 110 6 280 10 377 6 164 8 178 29 201 29 31 28
43 -3 23 -14 -9 -26 -13 -26 -9 -1 5 -5 -5 -9 -22 -4 -16 -8 -91 -9 -166 0
-75 -4 -237 -8 -360 l-6 -225 -34 4 -34 4 5 57 c8 79 19 617 13 611 -2 -3 -10
-133 -16 -290 -15 -353 -18 -390 -37 -390 -8 0 -35 -19 -59 -41 -39 -36 -46
-39 -51 -24 -4 10 0 295 10 634 22 819 34 1300 42 1741 l6 365 37 32 c55 49
13 42 -55 -8 l-55 -42 -72 7 c-40 3 -155 22 -257 41 -104 20 -213 35 -250 34
-58 -1 -45 -5 125 -35 105 -19 244 -45 310 -57 l120 -23 -2 -606 c-1 -334 -6
-809 -12 -1055 -6 -246 -14 -568 -18 -714 l-6 -266 -24 11 c-20 9 -23 16 -19
39 5 23 -2 36 -39 76 -38 40 -45 56 -54 111 -8 46 -23 84 -54 134 -23 39 -59
105 -79 146 -42 86 -71 117 -147 159 -56 30 -76 62 -88 140 -5 29 -3 33 12 28
55 -22 62 -20 94 28 17 25 31 50 31 54 0 5 7 11 15 15 8 3 15 15 15 26 0 13 7
20 20 20 28 0 34 20 22 77 -10 45 -9 48 19 77 24 25 29 38 29 79 0 48 1 49 18
34 10 -10 28 -17 39 -17 29 0 73 38 89 76 19 46 17 51 -7 20 -11 -14 -28 -26
-38 -26 -32 0 -32 13 -1 27 23 9 38 27 56 68 30 66 25 109 -6 57 -37 -61 -87
-39 -176 78 -91 120 -187 190 -261 190 -35 0 -89 -32 -97 -58 -6 -17 -12 -19
-45 -11 -74 16 -147 -22 -215 -112 -71 -95 -76 -136 -35 -346 10 -49 10 -71 0
-103 l-12 -40 -180 0 c-213 0 -256 -9 -311 -61 l-41 -38 7 -80 7 -80 -54 -34
c-99 -64 -157 -139 -172 -222 -4 -22 -17 -51 -30 -65 -12 -14 -71 -90 -130
-170 -59 -80 -112 -149 -118 -155 -6 -7 -7 285 -3 845 5 777 13 1155 32 1603
4 97 3 157 -3 157 -5 0 -15 -117 -22 -277z m2046 -465 c-1 -51 -3 -12 -3 87 0
99 2 141 3 93 2 -48 2 -129 0 -180z m-10 -460 c-1 -51 -3 -10 -3 92 0 102 2
143 3 93 2 -51 2 -135 0 -185z m-548 113 c8 -5 -4 -7 -32 -4 -25 3 -61 0 -79
-6 -30 -10 -31 -9 -14 4 22 16 103 20 125 6z m-154 -36 c-5 -2 -23 -6 -38 -10
-16 -3 -40 -18 -54 -33 -15 -15 -23 -21 -19 -14 10 17 -9 15 -52 -7 -46 -24
-81 -75 -99 -144 -20 -77 -16 -107 21 -182 19 -38 32 -74 29 -79 -3 -5 -12 2
-19 15 -12 23 -12 23 -19 -14 -10 -51 -25 -57 -25 -10 0 21 -7 65 -15 98 -20
85 -19 181 4 230 32 70 105 125 166 125 12 0 36 7 51 15 16 8 40 15 54 14 14
0 21 -2 15 -4z m111 -46 c8 -17 14 -34 12 -38 -2 -4 -12 12 -24 35 -23 48 -13
50 12 3z m130 -30 c3 -6 -17 6 -45 26 -28 20 -51 39 -51 41 0 7 88 -55 96 -67z
m-387 -54 c-17 -31 -35 -79 -40 -108 l-8 -52 3 56 c2 44 10 68 35 108 44 67
49 65 10 -4z m409 10 c-3 -3 -9 2 -12 12 -6 14 -5 15 5 6 7 -7 10 -15 7 -18z
m-131 -7 c-3 -8 -6 -5 -6 6 -1 11 2 17 5 13 3 -3 4 -12 1 -19z m368 -128 c-3
-5 -18 -9 -33 -9 l-27 1 30 8 c17 4 31 8 33 9 2 0 0 -3 -3 -9z m192 -192 c-1
-40 -3 -10 -3 67 0 77 1 110 3 73 2 -37 2 -100 0 -140z m-546 110 c11 -21 11
-22 -4 -10 -17 14 -61 7 -52 -8 3 -5 12 -7 20 -3 9 3 15 -1 15 -11 0 -9 -4
-16 -9 -16 -17 0 -22 -34 -6 -49 12 -12 18 -12 27 -3 9 9 8 12 -5 12 -21 0
-21 8 0 32 26 28 30 22 25 -37 -4 -45 -2 -55 11 -55 9 0 28 20 42 45 22 37 33
45 68 52 36 7 42 12 45 36 3 23 6 26 18 16 17 -14 20 -109 3 -109 -5 0 -7 -4
-4 -10 4 -7 -3 -7 -19 0 -15 5 -26 6 -26 0 0 -5 9 -11 20 -15 16 -5 18 -9 8
-25 -9 -14 -14 -16 -20 -7 -8 13 -2 -35 12 -90 8 -30 7 -33 -16 -33 -18 0 -24
-5 -24 -21 0 -12 -8 -23 -20 -26 -11 -3 -17 -9 -14 -14 3 -5 0 -9 -6 -9 -6 0
-9 -4 -5 -9 7 -13 -34 -81 -49 -81 -17 0 -74 44 -107 82 -16 18 -29 29 -30 23
0 -5 -9 15 -19 45 l-19 55 0 -44 c-1 -37 -3 -42 -18 -35 -58 25 -186 64 -230
70 -53 6 -58 10 -48 37 5 11 22 13 79 9 67 -4 79 -2 126 24 52 29 100 75 100
98 0 17 31 52 72 82 39 30 44 30 59 2z m-364 -20 c-3 -7 -5 -2 -5 12 0 14 2
19 5 13 2 -7 2 -19 0 -25z m33 -87 c-1 -13 -29 45 -29 59 0 8 6 0 14 -19 8
-18 15 -36 15 -40z m864 -478 c-5 -202 -11 -341 -12 -308 -5 81 9 687 15 681
3 -3 1 -171 -3 -373z m-874 301 c86 -16 203 -70 242 -111 14 -15 33 -44 41
-63 l14 -35 -48 3 c-79 6 -143 -31 -273 -156 -137 -133 -188 -166 -299 -193
-111 -27 -147 -21 -203 34 -38 38 -76 119 -62 132 2 3 24 -5 48 -16 37 -18 55
-20 107 -15 96 10 123 26 33 19 -68 -5 -81 -3 -125 20 -101 53 -98 48 -101
194 -1 83 2 134 10 144 23 32 70 53 134 59 99 11 396 1 482 -16z m280 -229
c33 -17 44 -53 13 -39 -10 4 -37 9 -60 12 -38 3 -63 -2 -148 -33 -45 -16 27
27 83 50 68 29 75 29 112 10z m-967 -79 c-72 -59 -121 -126 -138 -186 -3 -14
9 0 27 32 18 31 48 73 66 95 l32 38 -40 -83 c-41 -84 -84 -203 -96 -267 -9
-51 -24 -53 -24 -3 0 60 19 217 31 255 16 50 64 109 121 148 44 29 54 32 56
19 2 -9 -12 -29 -35 -48z m980 -35 l96 -44 -52 -38 c-121 -88 -180 -256 -143
-412 22 -92 20 -98 -13 -57 -16 19 -32 32 -35 30 -3 -3 6 -30 19 -59 14 -29
25 -56 25 -60 0 -4 -20 -20 -46 -36 -49 -31 -65 -48 -37 -39 10 3 2 -8 -17
-25 -19 -17 -40 -29 -47 -26 -13 4 -173 -161 -173 -179 0 -6 26 17 58 50 31
33 80 78 107 100 28 21 68 55 91 75 23 20 52 42 65 49 l23 13 -19 -29 c-65
-100 -140 -187 -261 -302 -153 -145 -159 -147 -189 -69 -15 40 -15 57 4 269
12 124 21 299 21 390 l0 164 58 41 c31 22 91 71 134 109 52 47 99 79 150 101
40 18 76 31 79 30 3 -1 49 -22 102 -46z m46 19 c78 -37 123 -69 116 -81 -4 -5
-2 -9 4 -9 6 0 20 -19 32 -42 12 -24 43 -79 70 -123 42 -70 117 -265 101 -265
-3 0 -21 12 -41 27 -30 22 -33 23 -17 5 11 -13 36 -32 55 -44 20 -12 49 -33
64 -47 l29 -26 -7 -156 c-8 -158 1 -204 24 -137 14 40 14 75 0 80 -8 3 -10 22
-5 62 9 71 27 72 68 3 34 -58 49 -120 42 -173 l-5 -39 17 29 c22 39 15 113
-16 157 -13 18 -20 30 -14 28 5 -3 21 -11 36 -18 15 -8 25 -17 23 -21 -3 -4 3
-14 13 -21 15 -13 16 -12 3 4 -22 28 7 21 34 -9 58 -62 42 -149 -43 -234 -77
-76 -122 -96 -176 -80 -63 18 -140 73 -193 138 -58 72 -169 229 -207 295 -35
59 -44 62 -15 5 l22 -43 -22 20 c-82 72 -139 227 -128 346 5 62 42 152 84 207
28 37 111 94 124 86 5 -3 9 -3 9 0 0 3 -44 28 -97 55 -69 35 -90 50 -73 50 14
1 54 -13 89 -29z m-971 -63 c9 -57 9 -57 -17 -63 -14 -3 -41 -12 -58 -19 l-33
-15 26 67 c26 71 52 109 65 96 4 -5 12 -34 17 -66z m46 -114 c19 -36 62 -76
106 -98 19 -10 36 -18 38 -20 1 -1 -9 -51 -22 -111 -14 -60 -32 -161 -41 -224
-9 -63 -26 -153 -36 -200 -15 -65 -21 -132 -24 -290 -2 -113 0 -223 4 -245 5
-23 9 59 10 200 1 159 6 259 15 295 l13 55 2 -90 c6 -197 5 -235 -3 -365 -5
-74 -13 -141 -19 -147 -5 -7 -30 -13 -56 -13 -56 0 -347 36 -361 45 -21 13 -9
154 35 418 25 150 49 292 53 316 10 62 30 65 34 4 2 -35 7 -48 18 -48 20 0 27
74 8 86 -10 7 -8 9 6 9 18 0 19 -7 14 -162 -5 -168 4 -151 17 29 l8 102 31 -5
c17 -3 64 -12 105 -20 98 -19 111 -18 111 5 0 11 -4 22 -9 25 -5 3 -59 14
-120 25 -61 10 -113 20 -115 22 -2 2 3 56 10 119 15 135 15 141 5 115 -5 -11
-14 -68 -21 -127 l-13 -106 -38 -4 c-22 -2 -39 -1 -39 2 0 3 16 73 36 155 50
204 74 248 146 265 61 15 77 11 92 -17z m-309 -173 c-20 -130 -33 -166 -116
-332 -60 -120 -111 -255 -135 -353 l-7 -30 -22 50 c-13 28 -35 86 -51 130 -32
96 -29 126 21 210 57 94 319 449 323 437 2 -6 -4 -57 -13 -112z m628 25 c-1
-33 -9 -80 -17 -105 l-15 -45 7 40 c9 54 8 136 -2 159 -7 15 -5 17 10 14 16
-3 19 -12 17 -63z m-97 -54 c6 -30 1 -122 -25 -481 -4 -58 -6 -123 -4 -145 2
-22 7 -125 12 -230 8 -168 12 -198 34 -255 31 -79 35 -68 6 15 -18 50 -22 88
-25 225 -4 164 -4 165 15 135 10 -16 29 -39 42 -50 l24 -20 -22 25 c-56 64
-67 163 -52 455 16 324 16 336 -9 379 -25 43 -8 50 28 11 22 -23 23 -28 16
-142 -3 -65 -8 -221 -10 -348 -2 -179 -2 -197 4 -80 l6 150 1 -193 0 -193 27
-28 c14 -15 24 -29 22 -32 -8 -7 68 -3 87 6 26 11 22 -27 -9 -91 -20 -41 -28
-77 -34 -157 -15 -188 -47 -259 -135 -303 -57 -27 -57 -27 -149 -15 -142 19
-386 107 -444 161 -12 11 -22 32 -22 45 l0 25 53 -21 c74 -31 258 -80 282 -76
11 2 -7 9 -40 16 -75 16 -241 69 -277 87 -25 13 -28 20 -28 63 l0 49 28 -13
c31 -15 290 -55 358 -55 33 0 51 6 68 23 21 21 23 35 31 187 4 91 7 179 6 195
-6 111 -2 316 8 400 11 91 54 319 67 355 8 22 52 -36 60 -79z m1221 -273 c-1
-46 -3 -9 -3 82 0 91 2 128 3 83 2 -46 2 -120 0 -165z m-1160 125 c-3 -10 -5
-2 -5 17 0 19 2 27 5 18 2 -10 2 -26 0 -35z m-10 -125 c-2 -18 -4 -4 -4 32 0
36 2 50 4 33 2 -18 2 -48 0 -65z m-572 15 c-15 -114 -77 -488 -82 -493 -10
-10 26 248 63 453 17 92 30 119 19 40z m1985 -63 c0 -4 -10 -12 -22 -19 -21
-11 -21 -11 8 -7 18 3 45 8 60 11 l29 7 -32 -29 c-23 -20 -34 -40 -39 -70 -3
-23 -15 -50 -25 -59 -18 -16 -19 -16 -19 8 0 41 -41 93 -75 95 -26 2 -27 1 -9
-6 52 -22 82 -107 54 -151 -7 -11 -10 -5 -10 25 -1 55 -20 84 -71 110 -42 22
-43 22 -19 35 13 7 46 16 74 21 l51 8 -53 -2 c-52 -2 -53 -2 -31 16 12 9 29
15 38 12 9 -2 22 -1 29 4 15 9 62 3 62 -9z m-1613 -102 c-3 -7 -5 -2 -5 12 0
14 2 19 5 13 2 -7 2 -19 0 -25z m1658 -166 l-7 -84 -20 22 c-20 21 -20 26 -9
128 21 187 52 130 36 -66z m-1105 175 c0 -2 -12 -14 -27 -28 l-28 -24 24 28
c23 25 31 32 31 24z m122 -44 c-11 -15 -35 -41 -53 -58 l-33 -30 35 43 c57 72
64 80 68 77 2 -2 -6 -16 -17 -32z m66 -295 l4 -312 38 -43 c72 -82 87 -150 51
-221 -38 -72 -132 -109 -249 -99 -51 4 -61 3 -42 -5 26 -10 167 -5 208 8 22 6
23 4 20 -26 -3 -30 -8 -35 -58 -52 -96 -33 -234 -43 -384 -30 -209 19 -482 76
-593 123 -39 17 -43 22 -43 54 0 19 2 35 5 35 3 0 67 -16 143 -37 134 -36 141
-36 342 -39 211 -2 229 0 77 11 l-87 7 40 27 c86 58 134 155 150 308 22 196
16 178 77 232 l56 50 49 -77 c66 -105 87 -166 99 -291 14 -147 19 -156 15 -26
-5 133 -31 237 -79 309 -18 28 -42 64 -51 80 l-18 28 45 47 c63 66 125 147
153 203 13 26 25 48 27 48 1 0 4 -140 5 -312z m-153 165 c-112 -107 -221 -196
-235 -191 -5 1 52 55 127 118 75 63 148 125 162 137 59 51 30 16 -54 -64z
m1017 52 c-2 -14 -8 -28 -13 -31 -5 -3 -9 -25 -9 -50 0 -39 3 -46 27 -55 38
-14 50 -6 61 43 l10 43 1 -35 c1 -61 -8 -80 -40 -80 -15 0 -40 5 -54 12 -22
10 -25 17 -25 68 0 43 5 64 21 84 25 32 27 32 21 1z m-255 -392 c-2 -32 -3 -8
-3 52 0 61 1 87 3 58 2 -29 2 -78 0 -110z m-1011 -75 c-2 -109 -5 -129 -28
-178 -14 -30 -35 -66 -47 -80 l-22 -25 14 30 c22 47 39 131 42 204 1 54 28
171 40 171 1 0 2 -55 1 -122z m-855 49 c-15 -31 -21 -63 -21 -110 0 -36 -3
-68 -7 -70 -5 -3 -7 36 -5 86 3 72 8 97 24 120 29 40 34 26 9 -26z m-82 -16
c6 -10 15 -38 20 -62 l10 -44 -30 33 c-18 20 -29 43 -29 62 0 34 14 39 29 11z
m514 -98 c-13 -2 -33 -2 -45 0 -13 2 -3 4 22 4 25 0 35 -2 23 -4z m167 -453
c162 -33 370 -46 506 -32 64 7 119 11 121 8 2 -2 -19 -19 -46 -37 -28 -18 -51
-34 -51 -36 0 -6 59 27 132 74 68 44 72 45 85 27 21 -28 12 -46 -40 -81 -108
-72 -245 -99 -452 -88 -207 11 -481 62 -542 101 -20 12 -23 23 -23 73 l0 58
108 -24 c59 -13 150 -33 202 -43z m-250 -205 c16 -8 46 -19 67 -24 36 -8 36
-9 8 -10 -29 -1 -115 32 -115 44 0 8 9 6 40 -10z m957 -72 c-3 -10 -5 -4 -5
12 0 17 2 24 5 18 2 -7 2 -21 0 -30z m-344 -50 c15 -3 27 -9 27 -14 0 -10 -55
-1 -85 14 -32 15 -85 57 -85 67 0 5 26 -7 58 -26 31 -19 69 -38 85 -41z m-563
36 c55 -13 127 -10 167 6 39 17 57 13 24 -4 -58 -32 -191 -29 -250 5 l-26 15
25 -7 c14 -4 41 -11 60 -15z m917 -56 c-3 -10 -5 -2 -5 17 0 19 2 27 5 18 2
-10 2 -26 0 -35z m11 -130 c-8 -148 -52 -244 -139 -298 -55 -36 -55 -31 2 22
28 26 62 70 76 96 28 57 53 161 53 230 0 26 3 47 6 47 4 0 4 -44 2 -97z m-894
-234 c-21 -23 -106 -69 -126 -69 -7 1 17 16 54 35 36 19 69 39 73 45 3 5 9 10
12 10 3 0 -2 -9 -13 -21z m1413 -282 c-2 -34 -3 -6 -3 63 0 69 1 97 3 62 2
-34 2 -90 0 -125z m-537 159 c-16 -14 -141 -59 -147 -52 -3 3 141 63 157 65 2
1 -2 -5 -10 -13z m-776 -7 c-7 -12 -146 -79 -161 -78 -6 0 155 87 165 88 2 1
0 -4 -4 -10z"/>
<path d="M3024 3606 c-8 -32 -1 -89 11 -93 6 -2 10 21 10 57 0 61 -10 79 -21
36z"/>
<path d="M2990 3513 c0 -11 22 -43 29 -43 21 0 17 27 -5 37 -13 6 -24 9 -24 6z"/>
<path d="M2440 3315 c-159 -22 -215 -38 -215 -59 0 -10 11 -27 25 -37 25 -19
27 -18 138 11 204 53 274 63 407 56 129 -8 141 0 46 28 -67 20 -262 20 -401 1z"/>
<path d="M2562 3173 c-29 -32 -60 -67 -68 -79 -14 -20 -45 -124 -37 -124 5 0
187 110 264 160 106 68 51 44 -91 -41 -134 -79 -135 -80 -138 -54 -4 32 10 54
84 134 31 34 53 61 48 61 -4 0 -32 -26 -62 -57z"/>
<path d="M3325 2556 c17 -15 57 -47 90 -72 l60 -46 -45 41 c-25 23 -65 55 -90
72 -36 24 -39 25 -15 5z"/>
<path d="M3551 2254 c0 -11 3 -14 6 -6 3 7 2 16 -1 19 -3 4 -6 -2 -5 -13z"/>
<path d="M1961 2094 c0 -11 3 -14 6 -6 3 7 2 16 -1 19 -3 4 -6 -2 -5 -13z"/>
<path d="M2433 1430 c-42 -38 -114 -46 -250 -30 -121 14 -149 8 -38 -9 162
-24 266 -11 309 38 29 32 15 33 -21 1z"/>
<path d="M2870 1859 c0 -9 9 -37 21 -63 29 -67 69 -251 70 -326 l0 -65 26 52
26 51 -37 105 c-44 127 -105 268 -106 246z"/>
<path d="M2571 1659 c-7 -27 -11 -52 -8 -55 3 -3 10 18 17 46 7 28 10 53 8 55
-2 3 -10 -18 -17 -46z"/>
<path d="M4131 4758 c-6 -200 -13 -489 -16 -643 -3 -260 -3 -268 6 -110 5 94
13 287 18 430 l9 260 -5 -280 c-14 -968 -58 -2226 -88 -2535 -3 -30 -17 -269
-30 -530 -14 -261 -32 -536 -40 -610 -7 -74 -16 -218 -19 -320 -4 -102 -9
-238 -12 -302 l-5 -118 45 0 c34 0 46 4 49 18 4 16 5 16 6 0 0 -10 5 -18 10
-18 12 0 31 306 56 915 15 359 29 673 42 920 4 79 10 125 19 136 20 22 32 258
14 269 -10 6 -9 78 5 376 10 203 21 583 25 844 4 261 14 711 20 999 10 415 10
537 0 592 l-12 69 -42 0 -42 0 -13 -362z m26 235 c-3 -10 -5 -2 -5 17 0 19 2
27 5 18 2 -10 2 -26 0 -35z m80 0 c-3 -10 -5 -4 -5 12 0 17 2 24 5 18 2 -7 2
-21 0 -30z m-80 -120 c-3 -10 -5 -4 -5 12 0 17 2 24 5 18 2 -7 2 -21 0 -30z
m0 -1675 c-3 -8 -6 -5 -6 6 -1 11 2 17 5 13 3 -3 4 -12 1 -19z m-10 -140 c-2
-18 -4 -6 -4 27 0 33 2 48 4 33 2 -15 2 -42 0 -60z m-10 -150 c-2 -18 -4 -6
-4 27 0 33 2 48 4 33 2 -15 2 -42 0 -60z m-10 -165 c-2 -21 -4 -4 -4 37 0 41
2 58 4 38 2 -21 2 -55 0 -75z m-10 -155 c-3 -8 -6 -5 -6 6 -1 11 2 17 5 13 3
-3 4 -12 1 -19z m33 -393 c0 -8 -4 -15 -9 -15 -13 0 -22 16 -14 24 11 11 23 6
23 -9z m-2 -132 c-2 -42 -7 -59 -18 -61 -12 -2 -14 8 -12 58 3 44 8 60 18 60
12 0 14 -12 12 -57z m-71 -250 c-2 -16 -4 -5 -4 22 0 28 2 40 4 28 2 -13 2
-35 0 -50z m-10 -180 c-2 -16 -4 -5 -4 22 0 28 2 40 4 28 2 -13 2 -35 0 -50z
m-10 -165 c-2 -18 -4 -6 -4 27 0 33 2 48 4 33 2 -15 2 -42 0 -60z m-10 -115
c-3 -10 -5 -4 -5 12 0 17 2 24 5 18 2 -7 2 -21 0 -30z m-30 -750 c-3 -10 -5
-4 -5 12 0 17 2 24 5 18 2 -7 2 -21 0 -30z m60 -150 c-2 -16 -4 -3 -4 27 0 30
2 43 4 28 2 -16 2 -40 0 -55z m-90 -140 c-2 -21 -4 -6 -4 32 0 39 2 55 4 38 2
-18 2 -50 0 -70z m20 0 c-2 -16 -4 -5 -4 22 0 28 2 40 4 28 2 -13 2 -35 0 -50z
m60 -50 c-3 -10 -5 -2 -5 17 0 19 2 27 5 18 2 -10 2 -26 0 -35z m-70 -115 c-3
-8 -6 -5 -6 6 -1 11 2 17 5 13 3 -3 4 -12 1 -19z m60 -20 c-3 -7 -5 -2 -5 12
0 14 2 19 5 13 2 -7 2 -19 0 -25z m-70 -80 c-3 -7 -5 -2 -5 12 0 14 2 19 5 13
2 -7 2 -19 0 -25z"/>
<path d="M4067 4763 c-4 -192 -17 -641 -29 -998 -13 -397 -19 -658 -13 -670 9
-21 12 45 34 765 13 443 25 1250 19 1250 -3 0 -8 -156 -11 -347z"/>
<path d="M3980 4680 c0 -184 -3 -393 -6 -465 -4 -71 -4 -127 0 -124 12 11 29
900 17 912 -8 8 -11 -80 -11 -323z"/>
<path d="M1396 3325 c5 -720 9 -1528 9 -1795 0 -267 3 -447 6 -400 3 47 12
148 19 226 10 113 11 251 1 705 -6 310 -16 686 -21 834 -5 149 -9 598 -9 999
0 401 -3 731 -7 735 -4 3 -3 -583 2 -1304z"/>
<path d="M3593 4365 c0 -33 2 -45 4 -27 2 18 2 45 0 60 -2 15 -4 0 -4 -33z"/>
<path d="M2943 4100 c-12 -5 -24 -18 -28 -29 -5 -18 -15 -21 -62 -21 -66 0
-108 -22 -137 -72 l-20 -33 48 42 c51 45 94 59 150 50 26 -4 34 -1 42 16 5 12
24 27 43 33 26 8 30 12 16 17 -20 8 -24 8 -52 -3z"/>
<path d="M3584 3990 c0 -52 1 -74 3 -47 2 26 2 68 0 95 -2 26 -3 4 -3 -48z"/>
<path d="M4093 3880 c0 -30 2 -43 4 -27 2 15 2 39 0 55 -2 15 -4 2 -4 -28z"/>
<path d="M3574 3635 c0 -60 1 -84 3 -52 2 32 2 81 0 110 -2 29 -3 3 -3 -58z"/>
<path d="M4083 3675 c0 -33 2 -45 4 -27 2 18 2 45 0 60 -2 15 -4 0 -4 -33z"/>
<path d="M3902 3573 c-15 -3 -28 -17 -36 -36 -13 -33 -41 -425 -31 -435 3 -3
5 16 5 41 0 26 4 47 8 47 5 0 12 70 15 155 6 185 14 205 78 205 l41 0 -6 -117
c-8 -143 -15 -207 -24 -199 -3 4 -5 49 -3 100 1 52 -2 96 -7 100 -11 6 -26
-189 -16 -205 4 -7 1 -10 -7 -7 -11 4 -13 27 -10 109 4 113 11 139 41 139 15
0 20 7 20 25 0 20 -5 25 -24 25 -52 0 -63 -36 -68 -210 -1 -52 1 -101 6 -108
4 -7 20 -12 34 -11 15 2 33 0 40 -5 30 -18 36 13 36 201 l1 188 -35 1 c-19 1
-46 0 -58 -3z"/>
<path d="M4073 3530 c0 -30 2 -43 4 -27 2 15 2 39 0 55 -2 15 -4 2 -4 -28z"/>
<path d="M3564 3360 c0 -91 2 -128 3 -82 2 45 2 119 0 165 -1 45 -3 8 -3 -83z"/>
<path d="M4062 3310 c0 -14 2 -19 5 -12 2 6 2 18 0 25 -3 6 -5 1 -5 -13z"/>
<path d="M3545 2865 c-4 -169 -5 -308 -2 -311 2 -3 8 133 12 301 4 168 5 308
3 311 -3 2 -9 -133 -13 -301z"/>
<path d="M4036 2869 c-12 -62 -51 -1107 -42 -1116 5 -5 13 167 27 557 6 173
14 374 19 445 7 125 6 164 -4 114z"/>
<path d="M1534 1942 c-6 -4 -14 -36 -18 -71 -5 -43 -13 -69 -24 -77 -14 -10
-17 -34 -19 -151 -1 -76 -5 -313 -9 -528 -3 -214 -3 -553 1 -752 6 -316 9
-363 23 -363 13 0 14 72 8 668 -7 677 -3 802 29 917 8 28 17 117 21 198 l7
148 23 -22 c27 -25 32 -15 8 19 -16 23 -31 27 -50 14z m-4 -162 c0 -5 -7 -10
-15 -10 -8 0 -15 5 -15 10 0 6 7 10 15 10 8 0 15 -4 15 -10z"/>
<path d="M3876 1811 c-4 -5 3 -7 13 -4 14 4 24 -4 37 -28 13 -27 15 -49 11
-112 -9 -105 -27 -128 -67 -85 -27 29 -25 42 4 34 31 -8 44 10 52 66 5 33 2
48 -10 60 -19 19 -157 54 -180 45 -9 -4 -23 -21 -32 -40 -15 -31 -15 -35 5
-69 18 -30 29 -37 67 -43 38 -5 48 -12 69 -45 28 -44 56 -63 80 -54 15 6 16 0
11 -57 -6 -62 -18 -339 -32 -734 -3 -104 -4 -188 -1 -184 4 3 11 122 17 265
25 623 31 727 45 754 8 15 16 58 19 96 l5 69 -12 -55 -12 -55 -3 55 c-3 72 -9
95 -28 114 -17 18 -50 21 -58 7z m-90 -49 c6 -4 13 -29 16 -55 l6 -48 -36 3
c-25 2 -39 10 -50 28 l-14 25 20 -25 c15 -18 24 -22 32 -14 15 15 2 42 -21 46
-18 3 -19 4 -4 26 17 23 32 27 51 14z m54 -62 c14 23 40 3 40 -31 0 -28 -3
-31 -22 -25 -13 3 -26 6 -30 6 -5 0 -7 17 -7 38 1 20 4 28 6 18 4 -14 7 -16
13 -6z"/>
<path d="M3797 1418 c-19 -586 -28 -967 -25 -1003 4 -50 16 227 32 765 7 228
10 421 6 428 -4 8 -10 -78 -13 -190z"/>
<path d="M3504 1440 c0 -58 1 -81 3 -52 2 28 2 76 0 105 -2 28 -3 5 -3 -53z"/>
<path d="M3494 1200 c0 -52 1 -74 3 -47 2 26 2 68 0 95 -2 26 -3 4 -3 -48z"/>
<path d="M3514 445 c0 -72 1 -99 3 -62 2 37 2 96 0 130 -2 34 -3 4 -3 -68z"/>
</g>
</svg>