<?xml version="1.0" standalone="no"?>
<!DOCTYPE svg PUBLIC "-//W3C//DTD SVG 20010904//EN"
 "http://www.w3.org/TR/2001/REC-SVG-20010904/DTD/svg10.dtd">
<svg version="1.0" xmlns="http://www.w3.org/2000/svg"
 width="512.000000pt" height="512.000000pt" viewBox="0 0 512.000000 512.000000"
 preserveAspectRatio="xMidYMid meet">
<metadata>
Created by potrace 1.16, written by Peter Selinger 2001-2019
</metadata>
<g transform="translate(0.000000,512.000000) scale(0.100000,-0.100000)"
fill="#000000" stroke="none">
<path d="M3000 4477 c-63 -15 -85 -26 -155 -75 -27 -19 -79 -49 -115 -66 -54
-25 -76 -30 -135 -29 -58 1 -74 -3 -93 -21 -37 -33 -55 -76 -55 -132 0 -90 60
-154 145 -154 l34 0 -1 -146 -1 -146 -33 -28 -34 -27 36 -56 c37 -58 61 -77
96 -77 18 0 21 -6 21 -42 0 -50 7 -63 37 -72 14 -4 24 -18 29 -39 4 -18 20
-55 35 -83 16 -28 29 -63 29 -78 0 -74 51 -108 148 -98 34 3 52 1 52 -7 0 -6
-15 -34 -34 -63 -65 -103 -69 -114 -56 -169 l12 -49 -42 -54 c-23 -31 -53 -88
-69 -133 -15 -43 -42 -110 -59 -150 -25 -56 -32 -85 -32 -136 0 -69 -6 -81
-106 -204 -40 -49 -44 -59 -44 -108 0 -50 -2 -55 -22 -55 -33 0 -51 -15 -63
-51 -10 -30 -23 -37 -136 -85 -76 -32 -159 -58 -214 -69 -52 -9 -102 -25 -119
-37 l-29 -21 -71 21 c-81 24 -143 35 -201 35 -67 0 -169 -15 -184 -26 -7 -6
-31 -38 -52 -71 -36 -56 -38 -63 -32 -113 l6 -53 -125 0 -125 0 -12 43 c-7 23
-52 168 -101 322 -127 398 -289 927 -355 1155 -62 214 -73 243 -97 248 -11 2
-59 -54 -152 -177 -105 -140 -139 -193 -153 -238 -25 -84 -23 -264 6 -418 44
-237 39 -604 -10 -817 l-20 -86 -46 30 c-60 41 -110 45 -206 19 -42 -12 -82
-19 -87 -16 -6 3 -10 -1 -10 -9 0 -21 53 -21 110 -1 50 18 107 19 147 4 15 -5
52 -31 83 -56 80 -66 174 -110 247 -115 37 -3 44 20 -68 -217 -56 -118 -70
-157 -62 -170 11 -18 97 -27 303 -32 l125 -2 -130 -8 c-71 -3 -259 -7 -417 -8
-190 -1 -289 -5 -293 -12 -8 -12 2441 -1 2466 12 24 12 23 78 -1 104 l-20 22
82 -4 c82 -4 85 -5 298 -111 l215 -107 -545 -3 -544 -2 -52 34 c-50 33 -56 35
-157 38 -59 2 -103 0 -99 -4 4 -3 55 -32 114 -63 l106 -56 704 3 703 3 53 23
c29 12 61 22 70 22 22 0 510 -183 882 -330 330 -131 371 -140 419 -93 48 48
55 92 56 373 2 288 -7 239 111 630 119 393 171 656 181 906 7 167 0 204 -48
259 -64 73 -211 101 -470 92 l-156 -6 -51 102 c-112 226 -259 362 -508 471
-43 19 -98 40 -121 47 -30 8 -54 26 -83 60 -27 33 -49 49 -64 49 -19 0 -29 12
-52 63 -25 54 -29 73 -27 143 1 45 9 132 18 194 9 62 17 161 18 219 2 99 0
110 -27 161 -43 83 -75 121 -120 141 -23 10 -53 34 -68 53 -58 73 -206 111
-328 83z m245 -46 c48 -22 82 -57 87 -90 1 -14 9 -26 16 -29 7 -2 11 2 10 8
-6 24 20 21 48 -5 29 -26 29 -26 4 -19 -14 4 -64 8 -111 8 -77 1 -89 -2 -127
-27 -43 -28 -54 -47 -27 -47 8 0 49 11 91 25 42 14 90 25 106 25 32 0 92 -23
102 -39 4 -6 -9 -4 -28 4 -51 21 -105 18 -192 -10 -42 -14 -95 -25 -118 -25
-38 -1 -40 -2 -22 -15 19 -14 19 -15 -5 -14 -13 1 -35 4 -49 8 -24 7 -23 9 41
73 47 46 81 70 118 84 47 17 50 20 34 32 -21 15 -155 14 -146 -2 3 -5 2 -6 -4
-3 -10 6 -96 -78 -131 -129 -11 -17 -39 -39 -61 -49 -36 -16 -39 -20 -29 -39
10 -19 8 -19 -15 3 -16 15 -40 25 -60 25 -19 1 -45 8 -58 17 -13 8 -43 23 -67
33 -55 25 -49 29 13 11 82 -25 215 -17 215 14 0 11 -46 31 -78 32 -42 2 54 17
114 18 43 1 55 6 80 32 16 17 51 49 77 70 57 45 105 51 172 20z m-688 -168 c1
-33 21 -48 87 -67 60 -18 104 -59 109 -101 3 -17 2 -22 0 -12 -8 33 -69 82
-133 107 -65 26 -94 57 -83 86 8 22 18 16 20 -13z m269 0 c-7 -7 -65 7 -71 17
-3 4 13 3 35 -2 23 -6 39 -13 36 -15z m-312 -142 c11 -12 35 -25 55 -31 20 -5
45 -17 56 -26 20 -16 20 -16 0 -9 -11 4 -41 13 -67 21 -72 22 -100 67 -81 134
6 21 8 18 13 -22 3 -26 14 -56 24 -67z m935 81 c14 -10 35 -34 46 -53 19 -34
19 -34 0 -19 -11 8 -28 25 -38 37 -24 30 -74 44 -118 34 -20 -4 -66 -29 -102
-54 -103 -70 -129 -71 -217 -12 -38 26 -46 35 -33 40 10 3 27 -3 43 -15 75
-61 114 -59 208 11 30 23 66 45 81 50 38 12 100 3 130 -19z m-19 -32 l35 -18
-60 5 c-56 4 -64 2 -125 -35 -36 -22 -76 -43 -90 -47 -29 -8 -25 -4 40 47 91
71 136 82 200 48z m-645 0 c3 -5 2 -10 -4 -10 -5 0 -13 5 -16 10 -3 6 -2 10 4
10 5 0 13 -4 16 -10z m-118 -41 c17 -11 34 -26 37 -34 3 -10 -7 -7 -32 9 -20
14 -58 28 -85 31 -26 4 -50 11 -52 16 -10 15 100 -3 132 -22z m713 -29 c11 -7
7 -10 -18 -10 -18 0 -49 -7 -69 -15 -47 -20 -78 -19 -33 1 73 33 98 38 120 24z
m-385 -19 l50 -19 3 -71 3 -71 65 -44 c66 -44 66 -44 43 -59 -55 -34 -159 -84
-149 -72 9 11 4 17 -25 30 -21 8 -41 15 -46 15 -16 0 -174 -73 -181 -84 -4 -6
-11 -1 -18 14 l-10 25 5 -27 5 -27 -42 19 -43 19 -3 103 c-2 84 1 108 15 131
21 32 213 136 253 137 14 0 48 -9 75 -19z m403 -49 c12 -8 28 -24 34 -36 l11
-21 -24 21 c-38 34 -64 44 -116 45 -43 1 -45 2 -18 9 37 10 82 2 113 -18z
m-258 -28 c0 -13 -31 0 -40 17 -11 20 -11 20 14 4 14 -10 26 -19 26 -21z m-20
-19 c7 -8 8 -15 2 -15 -5 0 -15 7 -22 15 -7 8 -8 15 -2 15 5 0 15 -7 22 -15z
m243 8 c-7 -2 -19 -2 -25 0 -7 3 -2 5 12 5 14 0 19 -2 13 -5z m12 -39 c13 -8
26 -22 29 -30 4 -11 -4 -8 -26 7 -17 13 -47 26 -67 30 l-36 7 38 1 c21 0 48
-6 62 -15z m-255 -4 c8 -5 11 -12 7 -16 -4 -4 -15 0 -24 9 -18 18 -8 23 17 7z
m198 -27 c-10 -2 -28 -2 -40 0 -13 2 -5 4 17 4 22 1 32 -1 23 -4z m112 -53
c28 -15 40 -63 30 -123 -16 -100 -57 -172 -92 -161 -16 5 -18 -1 -18 -68 0
-103 -14 -126 -155 -240 -123 -100 -202 -148 -241 -148 -58 0 -90 36 -82 91 2
19 11 25 38 29 l35 5 -27 18 c-15 10 -35 18 -45 17 -32 -4 -43 0 -43 14 0 12
60 23 153 29 9 1 16 6 14 11 -2 6 -44 9 -100 8 l-97 -2 0 25 c0 14 5 25 10 25
6 0 10 -6 10 -14 0 -8 5 -18 12 -22 8 -5 9 2 5 23 -7 35 7 53 40 53 30 0 41
27 20 47 -15 15 -15 14 -10 -5 5 -19 1 -22 -28 -22 -19 0 -43 -7 -53 -15 -11
-8 -31 -15 -44 -15 l-24 0 7 98 c4 53 12 106 17 116 10 18 15 15 62 -37 48
-54 54 -58 96 -57 27 0 58 8 78 20 29 18 32 24 32 69 l0 49 68 39 c119 71 108
69 131 18 11 -25 26 -45 33 -45 29 1 56 36 61 79 4 29 15 53 33 72 30 31 44
35 74 19z m-457 -165 c-3 -13 -29 -18 -59 -11 -40 11 -27 27 19 24 23 -2 41
-7 40 -13z m27 -71 c0 -35 -12 -49 -53 -59 -44 -12 -74 2 -107 49 -46 68 -38
73 37 26 46 -30 84 -42 51 -16 -28 21 -21 36 17 36 21 0 35 5 35 13 0 8 4 7
10 -3 5 -8 10 -29 10 -46z m-337 29 c-7 -2 -19 -2 -25 0 -7 3 -2 5 12 5 14 0
19 -2 13 -5z m33 -81 c5 -34 4 -42 -9 -42 -19 0 -43 23 -63 61 -16 31 -14 33
31 41 25 5 32 -7 41 -60z m32 3 c0 -12 -5 -6 -12 15 -8 19 -11 39 -8 45 7 11
20 -29 20 -60z m742 -10 c9 -11 22 -38 28 -61 7 -23 24 -58 38 -79 16 -24 23
-46 20 -59 -6 -22 -93 -140 -158 -216 l-38 -44 -1 120 c-1 65 0 124 1 129 1 6
5 47 7 92 5 78 8 85 42 121 20 21 38 34 40 28 2 -6 11 -20 21 -31z m200 -278
c0 -10 -28 -78 -61 -150 -34 -73 -75 -168 -91 -211 -16 -44 -32 -84 -35 -89
-3 -5 -35 20 -72 56 -36 35 -76 71 -89 79 l-22 15 47 54 c75 86 146 177 203
262 l52 78 34 -38 c18 -21 33 -46 34 -56z m-330 -54 c-6 -48 -21 -113 -34
-144 -23 -58 -76 -148 -87 -149 -4 0 -19 19 -34 43 -15 23 -36 51 -46 63 -19
20 -19 21 41 67 63 49 109 105 143 174 11 24 23 41 25 38 2 -2 -1 -43 -8 -92z
m498 -1 c138 -62 238 -127 325 -211 115 -110 189 -238 258 -441 30 -90 31
-100 26 -205 -9 -173 -26 -198 -24 -35 2 129 1 139 -32 235 -52 155 -94 235
-153 295 -100 101 -171 129 -256 99 -29 -10 -37 -6 -141 66 l-110 76 25 65
c33 88 29 93 -10 12 l-32 -68 -31 28 -32 27 24 53 c14 30 30 52 40 52 8 0 64
-22 123 -48z m-3129 -99 c16 -54 62 -204 101 -333 87 -287 255 -827 315 -1010
24 -74 60 -186 80 -248 20 -63 34 -116 31 -120 -23 -22 -69 74 -246 517 -213
530 -291 716 -312 738 -14 15 -33 23 -54 23 -18 0 -35 4 -38 9 -5 8 -24 118
-45 261 -9 61 -9 60 -5 -30 5 -88 18 -191 30 -232 4 -12 -12 -36 -47 -73 -65
-69 -54 -72 17 -5 29 28 59 50 66 50 7 0 26 -8 41 -18 23 -14 47 -65 146 -312
65 -162 153 -385 196 -495 42 -110 95 -238 116 -285 22 -49 31 -74 19 -60 -39
51 -73 125 -194 431 -293 746 -277 709 -314 709 -21 0 -46 -16 -91 -57 l-62
-56 6 -51 c11 -78 14 -80 70 -42 28 18 59 43 69 55 11 11 25 21 32 21 11 0 79
-158 71 -166 -2 -2 -16 23 -32 56 -16 33 -32 59 -36 58 -40 -16 -149 -86 -149
-98 0 -8 39 -112 87 -232 l86 -218 66 -57 c36 -31 70 -60 75 -64 4 -4 -9 -45
-29 -91 -50 -109 -134 -281 -144 -291 -22 -22 -214 47 -254 91 -15 16 -15 22
-1 67 62 205 68 586 13 905 -27 157 -23 310 9 383 22 49 258 367 273 367 4 0
22 -44 38 -97z m2970 -2 l25 -19 -32 -99 c-56 -175 -79 -290 -88 -448 -7 -115
5 -212 42 -336 l26 -86 -30 -210 c-17 -119 -37 -224 -47 -243 -27 -52 -72 -65
-185 -51 -104 13 -136 28 -146 67 -4 14 -5 103 -2 198 5 198 -8 161 -18 -51
-10 -199 -4 -209 130 -233 121 -21 181 -12 219 34 l18 21 -11 -23 c-7 -13 -35
-35 -64 -48 -48 -22 -270 -83 -360 -99 l-39 -6 7 118 c9 144 29 312 51 417 27
132 102 376 154 507 27 68 48 125 47 126 -2 2 -24 -42 -50 -98 -47 -102 -128
-331 -165 -469 -19 -73 -20 -74 -20 -30 -1 25 4 124 11 220 l12 175 46 80 c49
85 178 273 202 293 12 9 19 7 38 -13 13 -14 29 -25 35 -25 6 0 32 53 57 118
63 158 96 232 105 232 5 0 19 -9 32 -19z m158 -108 l104 -66 -50 -44 c-72 -63
-128 -179 -172 -358 -28 -117 -35 -133 -37 -100 -5 50 14 171 39 250 27 87 16
79 -20 -15 -42 -107 -62 -189 -70 -280 l-7 -75 -8 69 c-13 108 0 296 29 421
27 116 73 265 82 265 3 0 52 -30 110 -67z m-747 15 c0 -6 -16 -35 -35 -64 -19
-29 -35 -56 -35 -60 0 -4 11 -24 25 -45 l26 -36 -31 -51 -32 -50 35 -73 c20
-41 41 -102 47 -137 10 -59 8 -75 -31 -255 -23 -106 -59 -268 -79 -361 l-37
-170 -6 85 c-14 177 -9 233 37 428 24 102 47 204 50 226 9 62 -51 -113 -79
-230 l-24 -100 0 123 c-1 99 5 152 29 274 17 83 29 153 27 155 -3 2 -19 -38
-36 -89 -31 -90 -31 -92 -26 -38 4 30 4 52 0 49 -3 -4 -10 -49 -16 -100 -5
-52 -15 -130 -21 -174 -10 -66 -14 -75 -19 -50 -11 50 -10 221 2 277 6 29 22
76 36 103 40 81 89 121 76 62 -4 -18 -2 -16 11 7 14 26 15 33 1 79 -18 59 -17
57 -7 57 17 0 43 -60 36 -83 -6 -19 -5 -20 10 -8 23 19 20 34 -18 84 l-35 45
31 49 c51 81 88 111 88 71z m210 -116 c-22 -18 -23 -22 -12 -59 25 -85 18
-108 -53 -176 -36 -34 -65 -62 -65 -61 0 1 11 30 24 65 13 35 27 91 31 123 8
73 20 104 48 134 18 20 23 21 36 8 13 -13 12 -17 -9 -34z m841 20 c106 -68
191 -201 238 -372 25 -94 38 -185 24 -177 -6 4 -13 30 -17 58 -4 28 -9 49 -12
46 -3 -2 0 -42 6 -88 22 -176 11 -314 -56 -709 -24 -146 -51 -316 -59 -379
-23 -170 -55 -216 -172 -246 -85 -22 -420 -80 -640 -111 l-191 -27 -91 32
c-50 17 -114 41 -142 54 l-51 22 334 1 c363 0 768 29 768 53 0 3 -24 12 -52
19 -118 28 -258 79 -374 136 -68 34 -124 60 -124 59 0 -10 120 -80 186 -108
94 -41 81 -44 -103 -20 -153 20 -296 58 -355 95 l-47 29 6 -32 c15 -78 26 -84
178 -105 l50 -7 -65 -5 c-36 -3 -138 -4 -226 -2 l-161 5 -6 56 c-6 64 -41 151
-81 198 l-27 32 23 5 c13 3 61 10 106 16 73 10 86 9 101 -4 13 -12 24 -13 47
-6 16 5 104 20 196 35 92 14 222 39 289 56 84 21 133 29 157 24 46 -9 115 -80
182 -190 29 -47 54 -85 56 -85 13 0 -142 284 -162 297 -18 11 -42 14 -94 11
-38 -2 -70 -2 -70 0 0 1 7 16 15 32 20 38 51 47 279 79 113 16 107 61 -9 61
-49 0 -75 -7 -134 -35 -40 -20 -86 -44 -102 -56 l-28 -20 -18 28 c-14 22 -18
46 -17 118 2 82 8 110 73 314 39 124 96 315 125 425 30 111 57 210 61 221 15
48 -48 -82 -83 -171 -37 -92 -125 -354 -134 -399 -3 -11 -8 7 -13 39 -17 130
14 305 78 436 36 73 122 166 182 198 22 12 36 21 32 22 -24 1 -99 -50 -159
-109 -37 -37 -68 -65 -68 -63 0 2 12 28 27 59 79 160 214 225 324 155z m-1005
-283 c7 -12 -22 -59 -36 -59 -6 0 -10 6 -10 13 0 6 -12 34 -25 62 l-24 49 26
45 26 44 18 -72 c10 -39 21 -76 25 -82z m1712 -26 c64 -48 95 -199 77 -368
-10 -100 -34 -121 -150 -134 -49 -6 -119 -10 -155 -10 -55 1 -45 3 60 15 230
24 230 24 230 231 0 153 -13 200 -65 242 -33 25 -47 29 -141 41 -69 9 -69 9
25 6 74 -3 99 -8 119 -23z m-2025 -199 c-3 -36 -1 -102 5 -147 6 -45 14 -139
17 -209 4 -110 2 -128 -11 -128 -28 0 -92 39 -118 72 -14 18 -26 29 -26 25 0
-16 60 -124 104 -187 25 -35 43 -66 41 -69 -3 -2 -21 9 -41 25 -130 103 -161
124 -189 125 l-30 1 30 7 c27 6 30 10 35 56 4 40 17 66 62 131 32 44 61 91 66
104 7 20 11 15 31 -40 12 -34 24 -60 26 -58 2 2 -7 41 -21 87 -13 46 -24 97
-24 115 0 26 38 156 46 156 2 0 0 -30 -3 -66z m1672 -439 c8 -71 19 -242 25
-380 6 -137 15 -317 21 -398 12 -168 8 -212 -28 -264 -16 -24 -23 -45 -20 -62
3 -14 8 -42 12 -62 6 -30 3 -40 -21 -68 -33 -39 -40 -39 -219 8 -66 17 -183
42 -260 56 l-140 25 95 -5 c80 -4 203 -21 360 -51 l35 -7 -23 26 c-45 48 -211
105 -312 107 -29 1 -20 7 59 35 51 19 96 37 100 41 3 4 -1 5 -10 1 -86 -30
-232 -69 -309 -82 -99 -17 -470 -33 -458 -20 4 4 76 18 160 31 227 36 471 91
572 130 97 37 136 98 156 244 6 47 22 148 36 225 14 77 41 232 60 345 19 113
44 239 56 280 l23 75 7 -50 c4 -27 14 -108 23 -180z m391 80 c8 -13 14 -32 11
-42 -4 -15 -5 -14 -6 3 -1 28 -24 46 -69 55 l-37 7 42 1 c35 1 45 -3 59 -24z
m-1826 -197 c-10 -94 -43 -300 -55 -355 -4 -16 -13 -23 -30 -23 -29 0 -29 -8
-11 103 15 91 96 390 104 382 2 -2 -1 -50 -8 -107z m-431 26 c28 -15 50 -28
47 -31 -2 -3 -14 0 -25 7 -12 6 -41 11 -66 12 -25 0 -45 2 -45 3 0 14 14 35
24 35 7 0 36 -12 65 -26z m2209 -36 c27 -27 10 -99 -118 -478 -71 -212 -130
-380 -130 -375 0 35 44 181 142 468 94 278 109 332 100 352 -15 32 -60 39
-181 31 -65 -4 -91 -3 -81 4 22 14 253 13 268 -2z m-2214 -12 c43 -18 89 -75
115 -143 37 -98 24 -111 -32 -30 -20 28 -60 75 -89 102 -29 28 -45 41 -37 30
9 -11 37 -51 64 -90 l49 -69 -44 26 c-53 31 -123 61 -116 50 3 -5 39 -32 80
-62 42 -30 74 -55 73 -56 -1 -1 -32 -5 -68 -8 l-66 -7 -49 40 c-27 22 -69 57
-94 78 l-45 37 37 -40 c46 -48 67 -102 47 -115 -8 -5 -38 -9 -66 -9 -51 0 -53
1 -72 38 -20 38 -71 91 -106 110 -16 9 -12 11 30 17 28 3 109 30 180 60 143
58 160 61 209 41z m-799 -115 l30 -7 -35 -22 c-19 -12 -52 -25 -72 -28 -21 -4
-38 -10 -38 -14 0 -4 -14 -23 -32 -41 -29 -31 -32 -41 -36 -109 -4 -72 -15
-105 -32 -95 -4 3 -11 40 -15 83 -6 72 -5 83 18 128 48 95 114 127 212 105z
m404 -40 c31 -24 79 -97 70 -105 -2 -2 -27 -7 -54 -10 l-50 -7 -22 50 c-18 42
-29 55 -64 70 -46 21 -48 19 26 34 31 7 57 -2 94 -32z m-610 6 c-50 -43 -72
-95 -70 -169 1 -38 -2 -68 -7 -68 -14 0 -21 23 -28 83 -5 48 -2 57 35 115 34
52 45 62 68 62 l28 -1 -26 -22z m356 -6 c37 -12 76 -21 87 -21 11 0 33 -13 49
-30 23 -23 30 -37 27 -61 -3 -28 -8 -33 -58 -49 -30 -9 -73 -29 -94 -43 -49
-34 -93 -36 -105 -4 -11 29 -9 32 52 67 29 16 44 30 34 30 -10 0 -20 6 -23 14
-4 11 -12 13 -31 5 -22 -8 -25 -7 -20 10 8 33 -82 -37 -114 -88 -15 -25 -35
-54 -45 -63 -9 -9 -13 -21 -10 -26 3 -5 39 -31 81 -58 43 -27 71 -52 66 -57
-11 -11 -181 101 -181 120 0 23 20 54 31 48 5 -4 9 -1 9 4 0 6 -4 11 -10 11
-20 0 -9 56 19 94 30 42 139 126 157 121 7 -2 42 -13 79 -24z m275 -155 c0 -2
-37 -17 -82 -32 -46 -15 -100 -35 -121 -46 -38 -19 -38 -19 -25 1 14 23 18 25
113 57 64 21 115 30 115 20z m131 -12 c30 -9 59 -21 64 -26 7 -8 5 -9 -5 -6
-8 3 -26 8 -40 12 -25 7 -25 7 2 -9 15 -8 35 -14 45 -12 10 1 66 -17 124 -41
125 -51 130 -57 137 -183 l4 -86 -48 -19 c-27 -10 -66 -18 -86 -18 -50 2 -151
40 -177 68 -20 22 -24 22 -84 11 -35 -7 -84 -24 -110 -39 -46 -27 -107 -33
-113 -11 -5 15 123 103 194 134 98 43 93 55 -9 25 -74 -22 -123 -48 -167 -89
-38 -37 -72 -46 -72 -19 0 15 62 99 89 120 8 6 44 21 80 33 107 34 131 60 33
35 -91 -24 -154 -60 -196 -114 -34 -43 -70 -69 -81 -58 -2 2 15 34 39 72 l42
70 112 46 c95 39 152 70 131 70 -12 0 -148 -49 -199 -72 -47 -21 -62 -36 -105
-98 -27 -40 -51 -68 -53 -62 -5 17 61 143 84 159 19 12 288 120 305 122 3 1
30 -6 60 -15z m494 -21 c-3 -16 -9 -31 -13 -34 -16 -15 -198 -35 -232 -26 -34
9 -31 10 70 37 58 16 116 33 130 39 43 17 53 14 45 -16z m-1860 -44 l53 -40 4
-74 3 -73 -96 -4 c-78 -2 -101 -7 -118 -22 -12 -11 -24 -17 -27 -14 -3 4 15
53 39 110 63 145 69 158 79 158 5 0 33 -18 63 -41z m350 1 c4 -6 -8 -10 -29
-10 -19 0 -38 5 -41 10 -4 6 8 10 29 10 19 0 38 -4 41 -10z m105 0 c12 -8 10
-10 -10 -10 -14 0 -32 5 -40 10 -12 8 -10 10 10 10 14 0 32 -5 40 -10z m-45
-161 c72 -61 143 -124 158 -138 28 -25 32 -26 205 -31 l177 -6 -217 -2 -217
-2 -68 57 c-37 31 -92 79 -121 105 -35 31 -63 48 -79 48 -25 0 -25 1 -10 18
19 21 21 49 7 89 l-11 28 23 -27 c13 -14 82 -77 153 -139z m-49 131 c14 0 22
-4 19 -10 -3 -5 0 -10 7 -10 7 0 28 -13 47 -29 30 -25 31 -30 15 -34 -12 -3
-7 -5 12 -6 17 0 37 -8 44 -16 11 -13 8 -15 -15 -15 -27 0 -89 43 -78 54 4 3
1 6 -6 6 -6 0 -17 5 -24 10 -7 6 -28 22 -47 37 -19 14 -27 23 -17 19 10 -3 30
-6 43 -6z m124 0 c0 -5 7 -10 15 -10 8 0 15 -4 15 -10 0 -5 7 -10 15 -10 8 0
15 -4 15 -8 0 -5 10 -14 23 -20 21 -10 21 -11 -6 -11 -18 -1 -49 14 -84 39
-56 40 -56 40 -25 40 18 0 32 -4 32 -10z m395 -60 c12 -19 -17 -9 -61 20 -24
17 -44 33 -44 35 0 7 99 -45 105 -55z m978 42 c9 -10 29 -44 44 -77 23 -50 28
-73 28 -142 0 -45 -3 -84 -6 -87 -3 -4 -42 -9 -86 -13 l-80 -6 -6 89 c-6 90
-23 157 -51 212 l-16 31 38 4 c90 9 119 7 135 -11z m-1704 -75 c25 -20 51 -37
58 -37 8 0 61 -45 117 -99 57 -54 114 -104 126 -111 17 -9 139 -11 501 -9
l479 4 27 -27 28 -28 -515 0 -515 0 -110 111 c-61 61 -123 117 -140 126 -34
17 -135 112 -135 127 0 5 8 2 18 -6 9 -8 37 -31 61 -51z m607 -13 c49 -30 103
-68 119 -83 17 -15 49 -42 73 -60 45 -35 51 -52 10 -30 -12 7 -64 43 -115 81
-50 37 -103 73 -117 79 -14 7 -23 16 -20 20 3 5 -1 9 -9 9 -8 0 -25 9 -38 20
-50 41 9 20 97 -36z m-141 16 c8 -13 -45 -13 -65 0 -11 7 -6 10 22 10 20 0 40
-4 43 -10z m85 -60 c30 -22 58 -46 62 -53 4 -6 8 -8 8 -3 0 5 7 2 16 -5 14
-12 13 -14 -12 -21 -19 -5 -32 -4 -39 5 -5 6 -23 19 -39 27 l-29 15 29 6 29 7
-33 1 c-18 1 -50 14 -74 31 l-41 30 35 0 c25 0 50 -11 88 -40z m188 20 c-7
-11 -17 -20 -22 -20 -5 0 -1 9 9 20 10 11 20 20 22 20 2 0 -2 -9 -9 -20z
m-337 -21 c16 -11 27 -25 24 -30 -4 -5 3 -9 14 -9 29 0 35 -18 9 -23 -15 -3
-9 -5 15 -6 20 0 37 -5 37 -11 0 -5 6 -10 14 -10 7 0 19 -7 26 -15 11 -13 7
-15 -25 -15 -29 0 -47 8 -75 34 -21 19 -36 37 -32 40 3 3 -1 6 -9 6 -8 1 -30
14 -49 30 l-34 30 28 0 c15 0 41 -9 57 -21z m-441 -100 c62 -13 123 -61 118
-93 -6 -40 -51 -50 -237 -54 -114 -3 -172 -1 -167 6 3 5 31 13 62 17 32 4 63
9 69 11 7 3 -14 30 -49 64 l-61 60 107 0 c59 0 130 -5 158 -11z m745 -9 l30
-20 -46 0 c-33 0 -51 6 -64 20 -18 20 -17 20 16 20 19 0 48 -9 64 -20z m1265
-80 c0 -5 -5 -12 -11 -16 -14 -8 -33 11 -25 25 7 11 36 4 36 -9z m-403 -6 c-3
-3 -12 -4 -19 -1 -8 3 -5 6 6 6 11 1 17 -2 13 -5z m-479 -101 c-131 -2 -345
-2 -475 0 -131 1 -24 2 237 2 261 0 368 -1 238 -2z"/>
<path d="M3104 4404 c-18 -14 -18 -15 6 -7 58 18 117 9 167 -26 44 -31 46 -31
23 -6 -14 15 -37 33 -52 41 -36 19 -119 18 -144 -2z"/>
<path d="M3375 3830 c-11 -12 -18 -33 -17 -53 7 -130 6 -125 40 -118 12 2 32
48 32 72 0 11 -12 31 -26 46 -24 24 -24 26 -8 44 23 25 31 24 48 -8 8 -16 15
-23 16 -18 0 20 -31 55 -49 55 -10 0 -26 -9 -36 -20z"/>
<path d="M3131 3507 c-12 -23 -12 -242 1 -229 4 5 17 252 12 252 0 0 -6 -10
-13 -23z"/>
<path d="M3341 2140 c9 -5 36 -12 60 -15 42 -5 41 -4 -11 10 -65 17 -70 17
-49 5z"/>
<path d="M3252 2110 c0 -14 2 -19 5 -12 2 6 2 18 0 25 -3 6 -5 1 -5 -13z"/>
<path d="M3473 2113 c15 -2 39 -2 55 0 15 2 2 4 -28 4 -30 0 -43 -2 -27 -4z"/>
<path d="M2921 2654 c0 -11 3 -14 6 -6 3 7 2 16 -1 19 -3 4 -6 -2 -5 -13z"/>
<path d="M4043 2913 c9 -2 23 -2 30 0 6 3 -1 5 -18 5 -16 0 -22 -2 -12 -5z"/>
<path d="M4046 2178 c-150 -152 -316 -388 -316 -448 0 -19 2 -21 16 -10 8 8
47 57 87 109 39 53 136 162 214 243 108 111 143 153 143 172 0 21 -5 26 -27
26 -20 0 -48 -22 -117 -92z"/>
<path d="M3922 1677 c53 -23 198 -117 246 -160 12 -11 22 -16 22 -10 0 5 -29
38 -64 72 -70 66 -144 106 -216 116 l-45 6 57 -24z"/>
<path d="M3996 1489 c33 -63 73 -143 89 -179 26 -57 30 -62 33 -37 4 37 -23
130 -59 196 -19 36 -23 49 -11 39 30 -25 126 -103 146 -118 18 -14 19 -14 7 8
-20 37 -115 125 -172 159 -97 58 -97 57 -33 -68z"/>
<path d="M3799 1459 c18 -26 51 -64 73 -85 30 -28 23 -17 -22 36 -80 96 -91
106 -51 49z"/>
<path d="M3189 1437 c24 -26 199 -118 251 -132 24 -7 24 -6 5 8 -11 7 -78 45
-150 82 -103 54 -125 63 -106 42z"/>
<path d="M4468 1685 c-3 -11 -9 -42 -13 -70 -13 -98 -47 -211 -91 -300 l-44
-90 75 78 c50 53 76 88 80 110 8 43 2 297 -7 272z"/>
<path d="M4405 828 c28 -30 52 -54 54 -52 7 6 -41 64 -72 86 -26 18 -23 12 18
-34z"/>
</g>
</svg>