<?xml version="1.0" standalone="no"?>
<!DOCTYPE svg PUBLIC "-//W3C//DTD SVG 20010904//EN"
 "http://www.w3.org/TR/2001/REC-SVG-20010904/DTD/svg10.dtd">
<svg version="1.0" xmlns="http://www.w3.org/2000/svg"
 width="512.000000pt" height="512.000000pt" viewBox="0 0 512.000000 512.000000"
 preserveAspectRatio="xMidYMid meet">
<metadata>
Created by potrace 1.16, written by Peter Selinger 2001-2019
</metadata>
<g transform="translate(0.000000,512.000000) scale(0.100000,-0.100000)"
fill="#000000" stroke="none">
<path d="M2178 4696 c-29 -8 -63 -28 -90 -52 -26 -24 -62 -45 -91 -53 -45 -13
-59 -25 -37 -33 7 -2 5 -18 -6 -43 -17 -42 -14 -152 7 -263 13 -66 5 -78 -59
-84 -66 -7 -306 -128 -467 -236 -146 -98 -144 -94 -213 -287 -58 -160 -215
-568 -252 -654 -24 -56 -31 -84 -27 -115 3 -29 -5 -73 -30 -151 -26 -81 -34
-122 -30 -154 7 -66 82 -207 139 -263 l49 -48 -21 -110 c-11 -60 -23 -138 -27
-173 -5 -61 -4 -65 27 -101 18 -20 78 -64 134 -97 135 -80 149 -79 289 5 l106
65 -5 -122 c-3 -79 -12 -143 -24 -182 -23 -74 -43 -178 -75 -404 -13 -96 -29
-189 -35 -207 -13 -40 -3 -63 40 -94 28 -20 30 -26 29 -78 0 -31 -4 -66 -8
-77 -5 -11 -5 -25 0 -31 4 -5 2 -34 -6 -65 -20 -75 -19 -164 2 -200 9 -16 32
-36 51 -45 30 -14 39 -14 69 -2 20 7 45 26 57 41 19 25 21 41 19 130 -2 87 0
104 16 121 40 44 43 61 25 136 -17 67 -17 71 2 91 14 16 19 38 21 102 2 94 24
229 59 369 19 76 48 143 128 302 l104 205 40 -43 39 -43 -24 -104 c-33 -145
-33 -277 0 -434 14 -66 29 -138 33 -160 5 -22 9 -69 9 -104 0 -56 3 -66 26
-83 17 -13 46 -20 90 -23 35 -2 84 -10 108 -19 70 -25 217 -16 236 14 13 21
-7 48 -48 65 -136 58 -181 82 -203 108 -31 36 -30 54 2 88 24 25 26 35 30 131
4 121 34 352 44 341 16 -18 103 -292 110 -349 5 -33 16 -80 26 -105 9 -24 19
-65 21 -91 4 -39 11 -53 44 -83 21 -19 44 -35 51 -35 7 0 30 -12 52 -28 33
-22 50 -27 102 -27 46 0 67 5 82 18 31 29 12 71 -52 112 -84 54 -91 66 -78
128 12 52 10 77 -17 216 -11 54 -15 141 -6 141 4 0 480 -171 937 -336 215 -78
236 -79 361 -25 49 21 97 45 108 54 18 16 19 43 19 994 0 679 -3 990 -11 1018
-25 89 -85 118 -274 130 -49 3 -113 8 -142 11 l-51 5 -4 232 c-4 219 -5 236
-30 304 -34 95 -102 196 -188 277 -205 193 -444 194 -647 2 -38 -35 -83 -89
-102 -120 -75 -125 -121 -326 -121 -533 0 -122 0 -123 -24 -123 -39 0 -122
100 -146 177 -11 36 -20 72 -20 81 0 8 16 39 36 68 43 63 42 67 -50 144 -55
47 -63 57 -51 70 7 8 16 30 20 47 3 18 11 35 16 38 5 4 9 13 9 21 0 9 9 23 21
33 16 13 23 33 28 83 6 55 12 72 40 103 31 35 33 42 31 104 -3 88 -3 86 25 99
32 15 65 68 65 106 0 24 -2 27 -15 16 -13 -11 -15 -8 -15 17 0 17 -9 42 -21
57 -25 31 -59 35 -59 6 0 -32 -46 -25 -120 19 -90 54 -142 65 -212 47z m205
-256 c30 -16 68 -30 85 -30 29 0 32 -3 32 -32 0 -18 3 -49 6 -68 5 -31 1 -40
-30 -72 -34 -34 -36 -41 -36 -100 0 -35 -4 -69 -8 -76 -10 -14 -37 -7 -64 16
-16 14 -18 13 -18 -1 0 -9 9 -22 20 -29 30 -19 25 -46 -12 -62 -28 -12 -30
-14 -10 -15 26 -1 28 -18 6 -49 -31 -44 -97 -21 -178 63 -42 43 -54 64 -74
135 l-10 35 -1 -42 c-1 -52 25 -124 68 -186 l31 -46 -27 -45 c-19 -31 -35 -46
-49 -46 -22 0 -102 88 -171 188 -34 48 -36 55 -23 75 8 12 31 55 52 96 31 58
37 80 32 106 -7 38 3 78 17 70 5 -4 9 -1 9 4 0 6 3 11 8 11 15 0 36 -47 47
-105 7 -37 16 -60 24 -60 7 0 24 31 38 70 30 85 39 95 57 70 13 -18 14 -17 31
8 12 20 16 39 12 67 -4 35 -2 42 21 60 36 26 53 25 115 -10z m903 -231 c104
-39 180 -120 225 -238 40 -108 50 -186 56 -468 5 -243 4 -273 -10 -273 -8 0
-22 -3 -30 -6 -12 -4 -15 26 -20 198 -4 161 -9 219 -25 279 -58 215 -199 362
-350 363 -123 0 -246 -110 -315 -284 -36 -91 -47 -165 -47 -305 0 -67 -3 -143
-6 -169 -6 -43 -9 -47 -33 -44 l-26 3 1 165 c2 133 6 181 23 245 21 79 75 200
126 283 14 23 23 42 20 42 -20 0 -99 -125 -133 -210 -44 -112 -54 -171 -59
-347 -4 -138 -8 -173 -19 -173 -14 0 -18 62 -14 265 3 154 42 322 104 440 39
74 145 182 211 215 106 52 215 58 321 19z m-1351 -69 c-3 -5 -17 -10 -30 -10
-39 0 -55 -11 -55 -37 0 -30 73 -139 174 -258 41 -49 76 -93 76 -97 0 -10
-101 -78 -116 -78 -13 0 -190 296 -200 334 -5 21 2 39 30 82 20 30 47 59 59
64 30 12 70 12 62 0z m1646 -186 c21 -44 48 -116 59 -160 25 -96 42 -318 34
-436 -7 -85 -7 -86 -35 -90 l-29 -5 0 181 c0 182 -14 317 -46 439 -15 60 -66
176 -100 227 -9 14 5 3 31 -25 25 -27 64 -86 86 -131z m-1804 109 c-19 -30
-55 -55 -173 -123 -162 -92 -243 -159 -279 -230 -12 -25 -37 -91 -54 -148 -18
-57 -48 -139 -67 -182 -43 -98 -49 -146 -31 -238 11 -59 13 -122 3 -122 -1 0
-27 7 -57 16 -69 20 -91 39 -79 67 41 102 208 539 230 603 15 45 33 90 38 101
16 29 228 168 367 239 66 35 121 61 123 59 2 -2 -8 -20 -21 -42z m1451 -43
c55 -25 139 -110 175 -177 54 -100 69 -187 74 -415 l5 -208 -39 0 -40 0 -6
218 c-6 236 -17 300 -66 387 -73 131 -224 162 -344 71 -56 -42 -122 -142 -147
-223 -25 -82 -26 -126 -1 -61 22 56 90 144 167 218 l58 55 -52 -58 c-28 -32
-66 -88 -84 -125 l-33 -67 -3 -180 c-3 -108 -8 -185 -15 -193 -5 -7 -24 -12
-41 -10 l-31 3 -3 177 c-3 207 10 286 62 393 42 85 95 148 155 187 56 35 142
39 209 8z m-1468 -33 c0 -16 175 -315 200 -340 17 -18 19 -18 51 -2 19 10 53
31 76 46 23 16 55 29 71 29 28 0 30 -4 52 -76 20 -69 22 -92 17 -218 -4 -137
-52 -492 -68 -510 -11 -12 -268 9 -358 29 -78 18 -92 29 -65 50 15 10 16 16 6
27 -19 24 29 223 81 333 41 89 42 91 42 200 0 101 -2 115 -29 170 -36 73 -110
149 -172 176 -25 12 -44 22 -42 24 9 8 124 74 131 75 4 0 7 -6 7 -13z m-78
-119 c99 -63 157 -158 165 -274 6 -71 5 -74 -16 -74 -12 0 -21 -6 -20 -12 1
-7 0 -22 -1 -33 -2 -11 -6 11 -11 49 -21 180 -171 346 -293 322 -36 -7 -31 -1
31 35 56 33 77 31 145 -13z m1564 -3 c71 -54 111 -181 121 -382 l6 -132 -174
-3 c-126 -3 -182 0 -203 9 -16 7 -39 13 -52 13 -31 0 -37 27 -29 119 11 135
48 232 123 327 69 87 137 103 208 49z m-856 -46 c40 -34 74 -67 77 -75 6 -16
-31 -78 -57 -97 -18 -12 -17 -16 10 -96 16 -46 39 -95 52 -110 67 -77 94 -101
114 -101 13 0 24 -8 27 -20 4 -17 0 -20 -24 -20 -51 0 -94 -25 -134 -79 -21
-29 -40 -49 -44 -44 -3 4 -21 25 -40 45 l-34 37 88 56 c90 58 112 84 34 41
-25 -14 -57 -24 -74 -23 -27 2 -31 6 -37 47 -3 25 -7 76 -7 114 -1 38 -6 98
-12 133 -6 35 -9 66 -6 69 3 3 19 -2 37 -11 60 -31 54 -9 -8 29 -64 38 -110
96 -77 96 13 0 15 7 9 35 -5 31 -4 35 15 35 11 0 52 -27 91 -61z m-99 -156
c22 -72 29 -117 29 -177 0 -120 -57 -364 -97 -421 -13 -18 -14 -17 -9 15 28
174 39 284 40 390 1 110 -2 136 -27 215 -15 50 -33 102 -39 118 -8 20 -7 31 2
43 12 13 17 8 43 -36 16 -28 42 -94 58 -147z m-698 153 c41 -19 65 -41 110
-99 35 -47 78 -157 76 -201 0 -11 -7 3 -15 33 -30 112 -74 187 -140 237 -27
21 -52 29 -102 34 l-67 7 53 2 c29 0 67 -6 85 -13z m-19 -30 c80 -34 146 -142
177 -290 25 -121 24 -149 -11 -301 -48 -211 -36 -191 -111 -187 -63 3 -191
-27 -204 -47 -3 -5 14 -3 38 4 66 20 163 28 184 16 10 -6 13 -11 6 -11 -16 0
-81 -57 -95 -83 -6 -12 13 -2 50 27 59 46 61 47 89 32 43 -22 234 -56 316 -56
40 0 89 -3 109 -6 l37 -6 -16 -32 c-9 -17 -18 -64 -21 -103 -3 -40 -6 -73 -7
-73 -2 0 -63 -6 -137 -14 -73 -8 -189 -17 -258 -20 -69 -4 -182 -11 -251 -17
-96 -9 -132 -8 -149 1 -36 20 -58 87 -75 231 -8 74 -24 180 -35 237 -29 147
-27 179 19 286 21 50 53 138 71 196 36 117 70 184 102 201 57 31 121 36 172
15z m606 -36 c0 -5 -11 -10 -25 -10 -14 0 -25 5 -25 10 0 6 11 10 25 10 14 0
25 -4 25 -10z m-393 -292 c-3 -7 -5 -2 -5 12 0 14 2 19 5 13 2 -7 2 -19 0 -25z
m43 -17 c-6 -12 -16 -21 -23 -21 -8 0 -9 2 -1 8 6 4 15 18 19 32 5 14 10 20
12 13 2 -7 -1 -21 -7 -32z m1540 -135 c0 -12 -37 -14 -225 -13 -172 2 -225 5
-225 15 0 9 52 12 225 12 187 0 225 -2 225 -14z m548 -36 c136 -14 161 -34
100 -77 l-31 -22 -32 24 c-30 24 -78 38 -179 53 -27 4 -51 13 -54 20 -5 15 64
16 196 2z m-1268 -24 l45 -15 -70 0 c-75 -1 -95 -11 -95 -47 0 -15 -7 -23 -25
-26 -32 -7 -38 3 -24 39 24 65 73 79 169 49z m618 8 c18 -5 20 -9 11 -21 -19
-22 2 -34 67 -39 348 -23 478 -39 522 -63 11 -6 23 -25 27 -43 7 -28 9 -30 12
-11 7 39 -19 77 -62 91 -21 7 -94 18 -162 25 l-123 11 35 18 c34 18 39 18 157
-2 130 -22 175 -41 195 -81 10 -19 12 -244 10 -1024 l-2 -1000 -50 1 c-38 1
-169 44 -550 181 -275 100 -520 187 -544 194 -23 7 -46 19 -49 27 -3 8 1 94 9
191 8 97 14 218 14 270 l0 93 -37 32 c-91 77 -167 338 -168 575 0 92 0 93 23
87 12 -4 52 -9 89 -13 57 -5 71 -3 101 16 19 11 37 21 39 21 3 0 8 -18 12 -41
8 -48 34 -115 42 -107 3 4 -2 30 -10 59 -18 60 -20 79 -7 79 5 0 12 -13 15
-30 3 -16 9 -43 12 -60 9 -45 79 -147 123 -177 39 -27 40 -30 41 -84 0 -39 -5
-61 -15 -69 -13 -11 -16 -38 -15 -144 0 -72 -3 -150 -6 -173 -6 -39 -4 -45 29
-78 22 -22 44 -35 62 -35 28 0 65 16 77 34 4 6 8 120 8 252 l0 242 24 6 c13 3
42 24 64 46 107 103 140 287 81 446 -28 75 -125 176 -185 193 -79 22 -157 4
-211 -48 -35 -34 -28 -32 34 5 45 27 67 34 107 34 206 -1 336 -290 235 -520
-32 -71 -117 -150 -164 -150 -11 0 -15 10 -15 35 0 27 4 35 18 35 27 0 90 57
114 103 33 64 37 203 8 281 -38 100 -127 176 -205 175 -46 0 -96 -30 -133 -79
-19 -25 -41 -47 -49 -48 -8 -2 -38 21 -67 50 -29 30 -75 69 -101 86 -44 29
-55 32 -127 32 l-78 0 0 29 c0 28 2 30 53 35 28 3 98 7 154 10 76 4 112 10
140 25 33 18 58 20 193 20 85 1 165 -2 178 -5z m106 -10 c9 -23 8 -24 -18 -24
-32 0 -42 16 -19 29 25 14 30 13 37 -5z m761 -45 c18 -31 21 -58 27 -304 8
-370 9 -1062 1 -1408 -5 -230 -9 -287 -20 -287 -11 0 -13 140 -13 812 0 446
-2 809 -4 807 -10 -11 -16 -138 -16 -373 0 -143 -3 -256 -7 -252 -12 12 -10
1047 2 1043 5 -2 19 -19 30 -38z m-1591 -85 c10 -25 7 -34 -9 -34 -23 0 -145
-51 -145 -61 0 -4 21 -1 48 8 26 9 62 16 81 17 29 1 35 -3 41 -25 7 -23 5 -25
-20 -21 -29 4 -113 -27 -93 -35 7 -2 29 1 49 7 30 10 39 10 51 -3 23 -23 9
-45 -34 -52 -21 -4 -44 -8 -51 -11 -24 -7 -2 -24 32 -24 65 0 78 -47 14 -52
l-43 -3 33 -18 c55 -30 38 -67 -23 -47 -30 10 -39 9 -64 -10 -52 -36 -114 -59
-184 -66 -81 -8 -86 -1 -70 92 9 52 22 78 78 158 73 105 104 133 180 164 92
37 119 41 129 16z m185 -15 c19 -11 61 -47 94 -80 32 -33 67 -63 76 -68 9 -5
55 -15 101 -21 96 -13 110 -21 110 -61 0 -22 -5 -29 -20 -29 -23 0 -24 -4 -9
-32 14 -27 2 -36 -16 -12 -19 25 -19 48 0 64 23 19 8 30 -43 30 -101 1 -131
14 -194 79 -77 80 -117 92 -221 66 -20 -5 -26 -2 -31 18 -12 50 5 63 84 66 20
0 50 -8 69 -20z m431 -64 c11 -13 7 -15 -25 -15 -30 0 -44 -7 -71 -35 -48 -51
-92 -46 -63 6 26 49 131 78 159 44z m-949 -62 c-20 -35 -21 -36 -15 -8 4 17
11 41 17 55 8 20 11 21 14 8 2 -9 -5 -34 -16 -55z m547 33 c15 -8 43 -35 62
-60 43 -54 61 -64 145 -72 l65 -7 0 -33 0 -34 -62 1 c-35 0 -81 3 -103 7 -35
6 -40 11 -46 41 -8 40 -32 60 -96 84 -81 30 -71 1 12 -37 49 -22 55 -28 55
-55 0 -44 -23 -61 -81 -61 l-49 0 15 24 c19 28 9 39 -51 60 -30 10 -39 18 -38
35 3 103 4 110 22 114 39 10 125 6 150 -7z m432 -21 c68 -35 97 -167 54 -250
-18 -34 -63 -76 -94 -87 -5 -2 -12 -119 -16 -260 -6 -227 -9 -258 -23 -258 -9
0 -26 -3 -38 -6 -23 -6 -23 -5 -23 99 0 81 3 107 15 117 12 10 15 41 15 159
l0 146 -30 17 c-32 18 -70 72 -70 101 0 13 8 17 33 17 34 -1 66 -19 61 -35 -6
-16 13 -38 25 -31 6 4 11 16 11 28 0 11 9 31 20 45 41 52 13 163 -41 163 -23
0 -24 8 -2 32 20 22 64 23 103 3z m-2223 -87 c-3 -7 -5 -2 -5 12 0 14 2 19 5
13 2 -7 2 -19 0 -25z m1681 -77 c10 -6 10 -10 -2 -20 -20 -17 -60 -10 -64 12
-3 13 3 17 25 17 15 0 34 -4 41 -9z m-1392 -163 c20 -45 50 -67 96 -69 18 -1
140 4 270 12 131 7 241 10 245 6 11 -11 -24 -202 -68 -377 -49 -191 -64 -231
-98 -263 -38 -36 -277 -187 -333 -211 l-48 -20 -48 23 c-76 37 -191 111 -207
134 -8 12 -15 41 -15 66 0 72 79 513 121 679 21 84 39 156 40 160 1 4 7 -17
14 -47 8 -30 21 -72 31 -93z m1674 105 c0 -33 48 -121 89 -166 37 -40 54 -87
32 -87 -18 0 -99 90 -120 133 -11 24 -24 64 -27 90 -6 39 -4 47 10 47 9 0 16
-8 16 -17z m-364 -231 c17 -131 53 -260 94 -343 l29 -59 -42 6 c-23 4 -44 9
-47 11 -7 7 -59 183 -94 323 -42 167 -54 260 -34 260 9 0 24 -45 46 -141 19
-77 36 -138 39 -136 3 3 -7 65 -22 137 -27 127 -27 131 -9 145 18 13 19 10 22
-38 1 -29 9 -103 18 -165z m-168 -75 c-3 -15 -17 -8 -85 39 l-83 57 0 49 c0
43 2 48 23 49 12 0 47 8 77 18 l55 17 8 -106 c4 -58 6 -113 5 -123z m-261 128
c11 -31 14 -80 11 -209 -5 -195 2 -180 -123 -243 -59 -30 -235 -103 -248 -103
-3 0 13 69 34 153 29 117 89 407 89 432 0 6 80 12 154 11 l69 -1 14 -40z m88
-185 c30 -58 32 -79 9 -59 -16 13 -54 91 -54 110 0 20 21 -4 45 -51z m2 -62
c35 -24 42 -38 20 -38 -7 0 -26 14 -42 30 -34 36 -24 39 22 8z m178 -29 c61
-26 117 -49 126 -52 9 -3 21 -28 29 -61 12 -53 12 -56 -8 -73 -14 -12 -34 -60
-58 -138 -20 -66 -40 -131 -44 -145 -5 -18 -9 -21 -13 -10 -3 8 -40 121 -81
250 -71 219 -88 287 -68 278 4 -1 57 -24 117 -49z m758 -282 c7 -21 5 -34 -7
-52 -35 -53 -106 -13 -106 60 0 23 2 44 6 47 3 3 26 -2 51 -11 35 -12 49 -24
56 -44z m-446 -1008 c23 11 23 10 8 -19 -8 -16 -15 -38 -15 -50 0 -25 -6 -25
-55 3 -31 18 -41 29 -43 54 l-3 31 43 -15 c31 -11 48 -12 65 -4z m-430 -84
c72 -31 80 -33 101 -19 l23 15 -16 -25 c-10 -14 -14 -33 -11 -42 4 -11 -2 -10
-25 7 -17 12 -65 33 -107 48 -53 19 -78 33 -80 45 -5 22 4 19 115 -29z"/>
<path d="M2041 4293 c1 -4 1 -17 0 -28 -1 -17 -3 -18 -11 -5 -5 8 -10 10 -10
4 0 -5 6 -19 14 -29 12 -17 14 -16 18 19 2 20 0 40 -4 42 -5 3 -8 2 -7 -3z"/>
<path d="M2300 4258 l-25 -11 25 -4 c14 -2 42 -9 63 -15 25 -8 41 -8 48 -1 26
26 -66 52 -111 31z"/>
<path d="M2010 4210 c0 -14 31 -41 41 -35 15 10 10 19 -16 32 -14 6 -25 7 -25
3z"/>
<path d="M2311 4211 c-9 -6 -10 -11 -2 -15 14 -9 51 2 51 15 0 11 -30 12 -49
0z"/>
<path d="M2304 4018 c-3 -4 11 -8 30 -8 20 0 36 2 36 4 0 8 -61 12 -66 4z"/>
<path d="M2982 4120 c-53 -24 -102 -58 -102 -71 0 -5 17 1 38 14 31 20 103 51
162 70 8 3 -1 6 -20 6 -19 0 -54 -8 -78 -19z"/>
<path d="M1156 3065 c-9 -26 -7 -32 5 -12 6 10 9 21 6 23 -2 3 -7 -2 -11 -11z"/>
<path d="M1988 3474 c-4 -6 -10 -42 -14 -80 -4 -38 -11 -74 -16 -81 -5 -6 -8
-40 -6 -75 3 -58 5 -63 27 -66 23 -4 23 -3 20 82 -2 47 -1 86 4 86 8 0 7 72
-2 115 -3 17 -10 25 -13 19z m-11 -206 c-3 -8 -6 -5 -6 6 -1 11 2 17 5 13 3
-3 4 -12 1 -19z"/>
<path d="M2401 3483 c-1 -18 4 -33 9 -33 12 0 12 17 0 45 -7 17 -9 15 -9 -12z"/>
<path d="M2376 3395 c-9 -26 -7 -32 5 -12 6 10 9 21 6 23 -2 3 -7 -2 -11 -11z"/>
<path d="M1286 3248 c-11 -78 -25 -242 -25 -288 l1 -45 9 50 c10 61 30 317 25
322 -2 2 -6 -15 -10 -39z"/>
<path d="M3063 1778 c-54 -26 -50 -124 8 -172 30 -25 72 -33 96 -18 51 32 27
154 -37 187 -33 17 -37 17 -67 3z m63 -33 c11 -27 -6 -87 -25 -92 -13 -3 -17
-11 -13 -26 5 -20 4 -21 -12 -8 -13 11 -16 23 -11 53 4 25 3 38 -4 38 -15 0
-14 23 1 38 17 17 57 15 64 -3z m30 -110 c8 -20 -16 -49 -29 -36 -11 11 0 51
14 51 5 0 12 -7 15 -15z"/>
<path d="M1737 2450 c-10 -33 -31 -131 -48 -218 -17 -86 -37 -168 -44 -182
-17 -35 -28 -110 -15 -110 5 0 10 1 10 3 0 19 24 124 30 132 4 6 15 44 23 85
65 309 83 430 44 290z"/>
<path d="M1245 2377 c-19 -30 -68 -252 -60 -277 13 -39 52 -60 161 -85 146
-33 166 -32 209 8 33 30 35 38 51 149 9 65 14 128 10 142 -8 31 -36 41 -181
60 -66 9 -132 19 -147 22 -20 5 -30 1 -43 -19z m165 -22 c47 -7 107 -16 133
-20 30 -4 50 -12 54 -22 4 -9 -1 -70 -9 -137 -24 -181 -40 -189 -266 -136
-130 31 -134 37 -103 183 31 148 37 160 75 153 17 -4 69 -13 116 -21z"/>
<path d="M1750 2339 c0 -24 23 -21 28 4 2 10 -3 17 -12 17 -10 0 -16 -9 -16
-21z"/>
<path d="M3320 4299 c142 -23 262 -121 335 -273 24 -50 46 -106 50 -123 11
-57 22 -45 13 15 -11 77 -78 209 -139 276 -31 34 -74 67 -111 85 -52 26 -72
31 -132 30 l-71 -1 55 -9z"/>
</g>
</svg>