<?xml version="1.0" standalone="no"?>
<!DOCTYPE svg PUBLIC "-//W3C//DTD SVG 20010904//EN"
 "http://www.w3.org/TR/2001/REC-SVG-20010904/DTD/svg10.dtd">
<svg version="1.0" xmlns="http://www.w3.org/2000/svg"
 width="512.000000pt" height="512.000000pt" viewBox="0 0 512.000000 512.000000"
 preserveAspectRatio="xMidYMid meet">
<metadata>
Created by potrace 1.16, written by Peter Selinger 2001-2019
</metadata>
<g transform="translate(0.000000,512.000000) scale(0.100000,-0.100000)"
fill="#000000" stroke="none">
<path d="M1912 4630 c-18 -11 -39 -35 -47 -53 -8 -17 -14 -27 -15 -20 0 7 -7
10 -15 7 -10 -4 -15 0 -15 10 0 9 10 21 23 26 22 9 22 9 1 9 -32 1 -51 -26
-36 -50 11 -17 9 -19 -23 -19 -95 0 -159 -64 -204 -204 -17 -54 -31 -114 -31
-135 0 -107 -75 -165 -144 -110 -14 11 -26 17 -26 12 1 -14 24 -39 47 -51 14
-8 20 -18 16 -32 -6 -24 39 -105 67 -120 21 -11 27 -30 11 -30 -5 0 -23 12
-40 26 -17 14 -31 21 -31 16 0 -17 42 -63 66 -72 13 -5 24 -17 24 -27 0 -26
35 -80 60 -93 21 -11 21 -11 5 14 -24 36 -12 32 35 -10 26 -24 45 -34 57 -30
12 5 14 9 5 18 -13 13 -16 48 -4 48 4 -1 17 -9 30 -19 18 -16 22 -29 22 -81 0
-61 0 -62 56 -120 62 -65 65 -85 23 -138 -11 -14 -28 -44 -39 -66 -11 -23 -24
-48 -29 -56 -5 -8 -12 -23 -15 -32 -4 -13 -16 -18 -40 -18 -43 0 -60 -22 -77
-98 -7 -36 -23 -67 -48 -96 l-38 -43 3 -150 c1 -83 7 -168 13 -190 10 -38 9
-44 -24 -98 -37 -63 -51 -124 -40 -182 9 -50 52 -129 86 -157 15 -13 68 -104
120 -204 51 -100 109 -204 130 -230 33 -45 37 -55 41 -129 3 -53 12 -94 25
-122 l21 -41 -35 -73 c-33 -70 -34 -73 -19 -105 9 -18 16 -47 16 -64 0 -25 10
-41 43 -72 l43 -40 -39 -39 c-21 -21 -45 -53 -52 -70 -20 -49 -123 -133 -185
-152 -14 -4 -51 -21 -82 -36 l-57 -29 -333 0 c-183 0 -398 -3 -478 -8 -138 -7
-126 -8 225 -17 l370 -10 -127 -18 c-132 -18 -158 -24 -158 -37 0 -15 55 -20
260 -27 181 -5 206 -8 220 -24 8 -11 33 -25 55 -32 l39 -14 -94 -12 c-149 -19
-200 -37 -154 -55 65 -25 687 -46 816 -27 43 6 110 23 150 38 40 14 120 42
178 60 58 19 111 38 119 42 30 15 22 31 -23 43 -25 7 -46 15 -46 18 0 3 18 24
40 45 l40 39 0 85 c0 66 4 89 17 104 13 14 19 40 21 96 4 90 -8 128 -45 141
-16 6 -35 13 -43 16 -10 4 -7 11 15 28 28 23 29 25 18 72 -6 27 -9 64 -6 81 4
22 -2 46 -16 73 -11 22 -18 40 -16 40 18 0 82 -35 164 -89 126 -83 202 -106
346 -106 102 0 115 2 176 31 81 38 200 139 235 199 14 25 34 75 44 113 10 37
32 105 50 152 60 161 59 149 50 586 -9 425 -16 518 -56 739 -30 169 -54 246
-105 343 -76 143 -162 220 -346 309 -62 30 -113 56 -113 58 0 2 5 16 10 30 13
35 6 48 -96 160 -98 109 -121 120 -231 113 -61 -4 -88 -12 -157 -47 -46 -22
-91 -39 -99 -35 -24 9 -64 94 -85 181 -17 73 -76 192 -89 179 -3 -2 -26 12
-51 31 -26 20 -63 43 -82 51 -39 16 -129 21 -175 9 -27 -6 -28 -6 -10 5 12 8
51 13 95 12 85 0 123 -15 183 -72 20 -20 37 -31 37 -25 0 22 -51 72 -96 93
-39 19 -57 22 -122 18 -42 -3 -86 -9 -96 -13 -13 -6 -17 -5 -12 3 4 6 25 17
48 24 l40 12 -22 18 c-29 24 -77 23 -118 -2z m88 -8 c-47 -6 -81 -25 -96 -53
-16 -32 -24 -37 -24 -15 0 42 87 93 130 77 10 -4 7 -7 -10 -9z m207 -125 c62
-44 134 -141 133 -179 -1 -7 -10 5 -22 27 -31 59 -113 147 -161 173 -24 13
-31 20 -17 16 14 -4 44 -20 67 -37z m-424 -8 c-57 -11 -104 -50 -154 -128 -16
-25 -29 -38 -29 -30 0 25 55 104 90 129 39 28 101 51 115 42 5 -3 -5 -9 -22
-13z m85 -26 c-29 -48 -30 -126 -2 -173 11 -19 42 -48 69 -65 41 -26 58 -30
114 -30 44 1 77 7 100 19 18 10 30 12 26 6 -25 -40 -161 -53 -230 -21 -76 35
-115 95 -115 177 0 46 10 75 38 107 23 27 23 20 0 -20z m127 4 c57 -57 68
-158 23 -210 l-19 -22 16 32 c17 37 20 114 4 146 -6 12 -27 37 -47 54 -21 18
-31 33 -23 33 7 0 28 -15 46 -33z m180 -20 c24 -42 33 -105 18 -121 -5 -4 -8
-13 -8 -19 0 -19 -48 -20 -70 -2 -20 16 -20 16 2 6 12 -6 32 -11 45 -10 22 0
22 1 3 9 -16 7 -16 9 -4 9 36 2 38 61 4 125 -31 58 -24 60 10 3z m66 -43 c5
-15 8 -29 5 -31 -2 -2 -8 10 -14 26 -13 38 -5 41 9 5z m-516 -121 c-49 -92
-74 -128 -56 -81 27 71 83 168 98 168 3 0 -17 -39 -42 -87z m150 -259 c-10
-56 -78 -120 -168 -158 -55 -23 -35 -2 32 34 32 18 72 45 87 61 25 27 29 37
27 84 -1 30 -11 84 -22 120 -35 111 -23 107 15 -5 25 -73 34 -114 29 -136z
m-228 194 c-3 -7 -5 -2 -5 12 0 14 2 19 5 13 2 -7 2 -19 0 -25z m749 -35 c7
-18 11 -33 8 -33 -7 0 -34 67 -33 82 0 8 3 8 6 -2 3 -8 12 -30 19 -47z m-759
-5 c-3 -8 -6 -5 -6 6 -1 11 2 17 5 13 3 -3 4 -12 1 -19z m67 -15 c-11 -14 -31
-33 -44 -42 -18 -11 -14 -3 15 30 43 48 62 56 29 12z m244 -29 c43 -20 105
-14 135 14 39 35 53 35 19 1 -29 -31 -38 -34 -90 -34 -31 0 -66 4 -77 9 -15 6
-13 1 8 -18 15 -14 24 -26 19 -26 -5 0 -19 11 -32 25 -13 14 -20 25 -16 25 4
0 0 7 -8 16 -9 8 -16 23 -15 32 0 13 3 12 11 -5 6 -12 26 -29 46 -39z m376 24
c38 -38 56 -84 56 -145 0 -29 -5 -45 -15 -49 -15 -6 -11 -24 5 -24 16 0 39 56
33 79 -5 20 -3 21 21 15 19 -4 30 -2 39 10 11 15 24 10 131 -45 l118 -62 -5
-46 c-8 -66 -43 -172 -70 -212 -21 -32 -27 -34 -89 -39 l-66 -5 -5 70 c-5 61
-42 193 -52 183 -2 -2 1 -23 6 -48 11 -47 6 -94 -17 -174 -37 -129 -80 -174
-148 -155 -20 5 -36 13 -36 18 0 4 13 20 30 36 40 39 29 44 -20 10 -48 -33
-60 -29 -25 10 40 42 20 44 -23 2 -37 -36 -39 -37 -55 -19 -15 17 -15 19 3 35
21 18 27 57 9 57 -5 0 -8 -4 -4 -10 7 -11 -66 -80 -78 -73 -4 2 -20 30 -36 61
-16 31 -39 67 -51 80 -18 19 -19 23 -6 28 22 9 55 9 96 0 l35 -7 2 55 c3 63
-3 71 -19 25 -7 -20 -15 -28 -25 -25 -7 3 -22 0 -33 -6 -46 -29 -35 24 16 79
19 20 32 38 30 41 -3 2 -24 -6 -48 -19 -34 -19 -49 -36 -73 -86 -23 -49 -34
-63 -51 -63 -40 0 -48 23 -30 92 8 35 18 93 22 131 6 60 8 65 20 49 19 -27 80
-54 107 -47 12 3 43 15 68 26 l46 21 52 -27 c29 -14 55 -24 58 -22 2 3 -7 32
-21 66 -30 69 -33 107 -10 139 23 33 68 29 108 -10z m449 15 c-7 -2 -21 -2
-30 0 -10 3 -4 5 12 5 17 0 24 -2 18 -5z m66 -18 c16 -8 65 -55 110 -105 83
-93 101 -134 64 -146 -10 -3 -42 -16 -71 -30 -29 -13 -54 -24 -57 -24 -2 0 5
19 15 43 22 47 26 102 9 113 -7 4 -10 1 -7 -7 11 -30 -78 -227 -173 -383 -39
-64 -43 -73 -18 -46 30 35 149 227 149 242 0 13 97 58 125 58 14 0 25 -3 25
-7 -1 -15 -130 -189 -191 -257 -91 -99 -211 -200 -221 -184 -5 10 -8 8 -8 -5
0 -20 -55 -57 -86 -57 -64 0 -130 124 -95 179 6 9 8 -4 8 -35 -1 -58 22 -98
62 -112 31 -11 77 4 100 31 7 9 17 15 21 12 4 -3 10 9 14 27 3 17 26 76 51
130 25 54 61 151 79 216 19 64 45 142 59 173 54 121 55 158 2 179 -11 5 -14 9
-7 9 7 1 26 -6 41 -14z m-1079 -34 c0 -29 -94 -108 -149 -126 -39 -12 -15 13
38 40 26 13 61 40 77 59 32 39 34 40 34 27z m370 -36 c-47 -18 -58 -18 -34 0
10 8 30 14 44 14 22 0 21 -2 -10 -14z m618 -45 c22 -14 32 -27 32 -44 0 -40
-15 -39 -81 4 -34 22 -68 40 -75 40 -7 0 -16 5 -19 10 -12 20 108 11 143 -10z
m-1218 -14 c0 -27 -12 -46 -29 -46 -22 0 -41 19 -41 42 0 14 8 18 35 18 24 0
35 -5 35 -14z m216 -15 c-20 -22 -77 -51 -98 -51 -7 0 14 16 47 34 73 41 72
41 51 17z m329 -1 c-27 -12 -67 -12 -85 0 -11 7 3 10 45 9 43 0 54 -3 40 -9z
m-545 -92 c0 -6 -6 -5 -15 2 -8 7 -15 14 -15 16 0 2 7 1 15 -2 8 -4 15 -11 15
-16z m115 -8 c-8 -16 -15 -55 -15 -90 0 -60 -13 -79 -25 -39 -11 32 4 105 26
133 27 34 33 33 14 -4z m215 -50 c-11 -59 -20 -76 -20 -39 0 29 20 103 26 97
2 -3 0 -29 -6 -58z m1310 -66 c192 -96 304 -223 369 -419 60 -182 105 -622 99
-967 -2 -95 1 -212 6 -259 5 -48 5 -109 1 -135 l-7 -49 -25 110 c-36 158 -89
292 -196 489 -85 158 -93 176 -81 197 7 13 16 23 21 23 13 -3 63 36 63 49 0 6
-13 -2 -30 -18 -16 -16 -30 -25 -30 -20 0 5 38 73 84 150 46 77 87 154 90 170
l7 30 -23 -28 -23 -28 3 100 c5 162 -39 292 -133 387 -49 49 -119 84 -170 84
-15 0 -27 13 -43 45 -16 34 -37 55 -80 83 -57 36 -70 62 -32 62 10 0 69 -25
130 -56z m-1437 21 c-3 -9 -8 -14 -10 -11 -3 3 -2 9 2 15 9 16 15 13 8 -4z
m1327 -40 c0 -2 -25 -29 -56 -59 -59 -59 -59 -58 -22 41 l19 53 30 -15 c16 -9
29 -17 29 -20z m-1280 -10 c0 -27 -12 -32 -29 -12 -8 10 -7 17 1 25 19 19 28
14 28 -13z m1357 -61 l22 -39 -36 -19 c-98 -50 -180 -180 -209 -331 -23 -123
-24 -125 -37 -95 -16 37 -12 185 7 265 24 102 49 147 124 219 61 59 69 64 87
52 11 -7 30 -31 42 -52z m-1289 32 c15 -8 44 -23 65 -32 21 -9 55 -38 75 -63
20 -25 49 -57 65 -72 15 -15 27 -31 27 -35 0 -5 -14 -52 -31 -106 -34 -106
-34 -106 -108 -92 -35 7 -45 21 -55 78 -7 36 -6 38 8 26 9 -7 19 -10 22 -7 11
11 -28 67 -72 104 -59 49 -77 83 -68 131 6 36 29 82 40 82 3 0 18 -7 32 -14z
m1388 -101 c172 -51 281 -277 233 -484 -9 -42 -89 -224 -95 -219 -1 2 6 35 17
73 10 38 18 90 18 115 l-1 45 -9 -55 c-12 -70 -79 -269 -122 -363 -73 -157
-197 -360 -261 -427 -35 -36 -84 -92 -109 -126 -80 -107 -134 -152 -242 -204
-97 -47 -186 -76 -310 -101 -33 -6 -54 -14 -47 -16 37 -13 277 55 386 109 l60
30 -41 -48 c-111 -133 -263 -251 -308 -240 -23 6 -134 130 -146 164 -12 33 10
42 100 42 47 0 104 5 126 10 46 10 119 39 114 45 -2 2 -40 -5 -84 -16 -46 -11
-116 -19 -165 -19 -94 0 -110 -8 -110 -52 0 -22 19 -48 88 -118 57 -59 95 -90
109 -90 12 0 36 12 54 28 l34 27 -22 -31 c-31 -43 -100 -104 -118 -104 -53 0
-193 116 -234 193 -13 25 -12 29 21 69 20 24 57 66 84 93 27 28 89 107 139
175 158 219 168 226 267 186 l60 -25 -28 31 c-29 31 -80 58 -109 58 -8 0 -24
-9 -35 -20 -40 -40 -19 5 36 76 71 94 117 134 152 134 43 0 127 -45 183 -97
l52 -48 -7 34 c-13 70 -64 115 -143 127 -24 3 -45 9 -48 13 -2 4 21 20 52 35
30 15 53 29 50 32 -10 11 -112 -25 -159 -55 -41 -26 -48 -28 -48 -13 0 10 16
42 35 72 20 30 37 64 40 75 2 11 6 31 9 45 3 14 20 41 38 60 18 19 43 63 54
98 34 97 132 260 194 322 32 32 86 71 129 93 45 23 65 37 51 37 -37 0 -152
-67 -209 -122 l-54 -53 7 35 c10 54 84 169 152 238 34 34 57 62 51 62 -23 0
-114 -71 -147 -115 -18 -25 -35 -43 -37 -41 -8 7 29 91 59 132 31 43 109 104
133 104 6 0 34 -7 61 -15z m-1060 -205 c1 -87 7 -116 77 -355 42 -143 83 -280
92 -304 17 -49 12 -71 -5 -25 -7 16 -40 129 -76 252 -35 123 -78 256 -96 295
-24 53 -32 86 -32 127 0 84 6 111 24 108 12 -3 15 -21 16 -98z m-66 56 c-16
-43 -12 -90 14 -160 l23 -65 -44 47 c-49 54 -51 72 -12 161 22 53 38 66 19 17z
m686 -38 c-10 -108 -48 -318 -58 -318 -4 0 -8 30 -8 68 0 37 -3 103 -6 147
l-6 80 38 47 c22 27 41 48 43 48 2 0 1 -33 -3 -72z m-507 -186 c6 -82 14 -173
17 -203 3 -35 2 -49 -4 -39 -5 8 -17 83 -26 165 -9 83 -19 167 -22 188 -4 28
-2 37 8 37 11 0 17 -33 27 -148z m-377 54 c39 -25 95 -30 123 -12 14 9 25 12
25 7 0 -17 -36 -31 -77 -31 -59 0 -122 52 -122 100 0 8 6 1 14 -17 7 -17 24
-38 37 -47z m11 -35 c42 -21 53 -22 85 -13 20 6 37 10 39 8 2 -1 -6 -29 -17
-62 -12 -32 -19 -70 -17 -83 5 -23 4 -23 -65 -19 -56 4 -78 11 -110 34 -49 34
-82 77 -76 95 3 9 11 1 22 -19 22 -44 27 -38 13 15 -10 37 -8 48 13 93 l23 50
21 -37 c14 -26 37 -46 69 -62z m674 62 c-3 -10 -5 -4 -5 12 0 17 2 24 5 18 2
-7 2 -21 0 -30z m68 0 c-23 -97 -48 -164 -56 -152 -12 20 -11 132 1 124 6 -3
10 1 10 9 0 12 35 46 48 46 2 0 1 -12 -3 -27z m176 -180 c1 -54 -44 -216 -67
-242 -9 -10 -13 -1 -18 45 -7 56 11 188 46 354 l11 55 14 -80 c7 -44 13 -103
14 -132z m-724 101 c29 -50 29 -63 1 -37 -25 22 -48 37 -48 30 0 -2 25 -34 55
-72 30 -38 51 -72 47 -76 -4 -4 -35 -10 -69 -13 l-63 -7 0 37 c0 54 32 185 45
181 5 -2 20 -21 32 -43z m478 -146 c15 -351 24 -444 19 -199 -3 152 -1 228 7
237 6 7 19 34 28 60 l18 47 6 -64 c4 -35 9 -159 13 -275 l7 -211 -27 -39 c-14
-21 -29 -60 -32 -86 -10 -75 -44 -88 -81 -32 -16 25 -19 63 -24 354 -3 179 -9
334 -13 345 -7 19 10 31 65 44 3 0 9 -81 14 -181z m-131 -268 l6 -45 -16 35
c-32 71 -64 224 -69 330 l-4 105 39 -190 c21 -104 41 -210 44 -235z m-726 363
c-89 -178 -92 -185 -96 -283 -2 -71 0 -100 11 -114 12 -17 15 -7 19 90 4 79
13 128 30 178 26 73 48 97 48 51 0 -30 41 -217 47 -211 2 1 -3 52 -12 111 -21
154 -22 152 16 121 55 -46 89 -59 160 -58 l66 0 -19 -80 c-24 -106 -64 -179
-146 -270 -30 -34 -40 -38 -81 -38 -45 0 -118 -29 -168 -65 -21 -16 -22 -15
-32 22 -15 54 -13 176 4 258 19 87 19 85 -5 55 -17 -22 -20 -22 -20 -6 0 10
17 35 38 56 32 30 41 48 51 101 7 35 18 70 23 77 11 13 72 17 66 5z m372 -228
c67 -34 88 -51 76 -62 -6 -6 -91 43 -136 77 -37 29 -17 24 60 -15z m-50 -109
c0 -22 -8 -40 -27 -57 -31 -28 -168 -119 -180 -119 -4 0 7 15 24 33 56 59 103
130 121 179 l17 49 23 -26 c13 -16 22 -39 22 -59z m235 -60 l21 -73 -61 5
c-80 6 -148 -22 -209 -88 -39 -41 -47 -46 -58 -33 -6 8 -35 28 -62 44 l-50 28
79 37 c184 83 283 132 289 143 16 26 32 6 51 -63z m10 -105 c63 -28 158 -113
204 -181 50 -75 55 -101 14 -74 -16 10 -64 37 -108 59 l-80 40 47 -78 c56 -94
84 -169 70 -194 -8 -14 -16 -4 -45 54 -35 68 -85 138 -94 130 -2 -3 10 -26 26
-53 37 -57 42 -87 11 -59 -20 18 -55 70 -104 158 -15 27 -30 46 -32 44 -11
-10 56 -136 115 -217 33 -47 61 -91 61 -98 0 -18 -108 76 -172 150 -52 59 -80
72 -40 18 13 -17 19 -36 16 -47 -4 -12 -3 -14 3 -5 7 9 14 7 31 -10 27 -30
102 -175 102 -200 0 -21 -89 -122 -99 -112 -3 3 -8 67 -12 142 l-5 137 -2
-146 -2 -145 -35 -17 c-20 -9 -45 -33 -57 -54 l-22 -36 -13 78 c-7 43 -15 81
-18 83 -2 3 -1 -56 2 -130 6 -134 6 -135 -21 -174 l-26 -39 6 76 c4 42 1 136
-6 210 -19 200 -17 430 4 503 21 73 55 126 100 161 62 47 118 55 181 26z
m-398 -56 c75 -38 87 -54 74 -103 l-11 -40 -30 28 c-16 15 -43 33 -60 40 -27
11 -34 11 -47 -2 -18 -19 -10 -38 48 -112 22 -27 39 -52 39 -57 0 -17 -26 3
-48 37 -26 40 -39 40 -21 0 21 -45 -1 -43 -43 4 l-40 45 25 -40 c17 -29 44
-51 98 -81 41 -23 76 -49 77 -59 3 -14 -17 -6 -90 33 -92 50 -138 59 -138 27
0 -7 29 -53 65 -101 36 -48 63 -89 60 -92 -3 -3 -27 16 -54 42 l-49 48 -7 -50
c-4 -28 -4 -61 0 -74 4 -13 49 -81 100 -153 92 -131 133 -196 103 -165 -37 37
-188 231 -212 272 -40 69 -126 326 -126 378 1 153 148 244 287 175z m1465 -97
c101 -154 168 -294 202 -424 39 -153 43 -207 16 -279 -12 -33 -31 -91 -42
-130 -37 -126 -36 -125 -66 -114 -15 6 -42 25 -61 42 -26 25 -31 27 -22 10 9
-18 45 -50 90 -80 8 -6 -31 -53 -40 -48 -5 4 -40 59 -78 123 -77 130 -114 227
-131 347 -6 44 -13 94 -16 111 -2 18 -18 50 -34 72 -31 43 -90 155 -90 171 0
5 14 34 32 65 l32 56 16 -58 c22 -80 71 -144 149 -196 63 -41 144 -86 156 -86
29 0 -35 141 -154 343 -90 151 -66 89 39 -104 94 -174 110 -209 93 -209 -10 1
-130 201 -172 288 -17 34 -34 62 -37 62 -3 0 -19 -9 -34 -20 -48 -34 -43 1 12
94 29 47 53 86 55 86 2 0 40 -55 85 -122z m-949 -65 c35 -22 37 -26 36 -76 l0
-52 -23 50 c-13 28 -36 66 -52 85 -16 19 -22 30 -14 25 8 -5 32 -19 53 -32z
m861 -61 c19 -38 55 -99 80 -135 l46 -67 -62 31 c-35 17 -74 41 -86 53 -28 25
-62 88 -62 114 0 17 35 72 46 72 2 0 19 -31 38 -68z m-212 -180 c64 -70 98
-130 107 -184 19 -108 21 -149 10 -142 -10 6 -197 284 -208 307 -3 9 38 57 50
57 3 0 22 -17 41 -38z m-50 -114 c30 -46 67 -103 82 -128 15 -25 41 -65 59
-90 21 -30 39 -74 52 -127 l20 -82 21 20 22 21 7 -42 c4 -23 5 -43 3 -44 -1
-2 -27 -6 -55 -9 l-53 -6 -1 62 c0 34 -4 82 -9 107 -7 36 -8 25 -7 -55 l2
-100 -28 2 c-29 2 -119 41 -150 64 -12 10 -20 39 -28 104 -22 193 -21 193 -40
25 l-18 -155 3 210 c3 198 4 213 26 258 13 26 27 47 31 47 4 0 32 -37 61 -82z
m-875 -207 c-23 -33 -44 -58 -46 -56 -6 7 75 115 86 115 1 0 -16 -27 -40 -59z
m650 -23 c-3 -7 -5 -2 -5 12 0 14 2 19 5 13 2 -7 2 -19 0 -25z m-40 -20 c-3
-8 -6 -5 -6 6 -1 11 2 17 5 13 3 -3 4 -12 1 -19z m50 -45 c-3 -10 -5 -4 -5 12
0 17 2 24 5 18 2 -7 2 -21 0 -30z m8 -171 c-5 -5 -42 117 -50 164 -3 22 8 -6
24 -60 17 -55 29 -102 26 -104z m2 116 c-3 -8 -6 -5 -6 6 -1 11 2 17 5 13 3
-3 4 -12 1 -19z m-620 -78 c30 -33 73 -70 94 -82 21 -12 39 -25 39 -29 0 -4
-22 -30 -48 -58 -69 -73 -93 -70 -194 28 -27 25 -48 54 -48 66 0 17 85 135 97
135 2 0 29 -27 60 -60z m366 -90 c8 -36 13 -67 11 -69 -2 -3 -17 4 -32 16 -32
24 -40 76 -21 138 l12 40 8 -30 c4 -16 14 -59 22 -95z m-630 28 c-2 -5 -13
-13 -24 -18 -18 -10 -19 -7 -19 37 l0 48 24 -30 c13 -16 22 -33 19 -37z m211
-152 c21 -14 49 -26 61 -26 21 0 22 -3 15 -34 -4 -19 -24 -64 -44 -99 l-36
-65 27 -76 c15 -42 24 -78 20 -82 -11 -11 -86 39 -96 65 -5 14 -13 50 -16 79
-8 58 -20 67 -30 23 -3 -16 -17 -41 -30 -55 l-24 -26 29 0 c22 0 28 -4 24 -15
-9 -22 -48 -29 -76 -14 -18 10 -19 14 -7 16 19 4 35 71 31 126 -6 67 -31 34
-32 -43 0 -19 -7 -46 -14 -59 -13 -24 -14 -24 -25 -3 -27 51 -1 166 57 250 32
47 64 102 59 102 -3 0 -22 -26 -41 -57 -34 -54 -52 -57 -21 -3 8 14 14 30 14
35 1 20 -19 -21 -55 -112 -19 -51 -39 -95 -44 -98 -18 -11 -21 17 -5 41 9 14
31 61 50 106 19 45 44 92 56 104 l22 23 46 -38 c25 -21 64 -50 85 -65z m1210
52 c-6 -21 -5 -22 12 -8 10 8 3 -3 -16 -24 -37 -40 -99 -80 -140 -90 -14 -4
-2 5 25 20 58 31 110 73 111 92 2 25 4 32 10 32 3 0 2 -10 -2 -22z m-852 -82
c126 -36 115 -59 -18 -36 -167 30 -165 29 -158 58 10 42 13 43 54 22 21 -11
76 -31 122 -44z m-72 -61 c36 -8 88 -14 116 -15 48 0 52 -2 64 -31 17 -40 4
-53 -74 -73 -78 -21 -236 -32 -236 -18 0 6 9 13 20 17 16 5 17 10 10 31 -9 24
-9 24 55 24 36 0 65 4 65 9 0 6 -27 20 -60 32 -105 38 -83 51 40 24z m707 -1
c-3 -3 -12 -4 -19 -1 -8 3 -5 6 6 6 11 1 17 -2 13 -5z m-920 -100 c-9 -9 -28
6 -21 18 4 6 10 6 17 -1 6 -6 8 -13 4 -17z m0 -37 c4 -7 0 -8 -11 -4 -10 4
-22 7 -27 7 -5 0 -9 4 -9 9 0 12 38 2 47 -12z m-17 -22 c17 -9 30 -24 30 -33
0 -22 -26 -59 -35 -50 -9 8 -35 98 -29 98 3 0 18 -7 34 -15z m405 -45 c12 -26
24 -39 34 -38 26 5 16 -53 -14 -79 -40 -35 -85 -30 -139 15 -37 30 -44 41 -40
62 7 33 11 35 31 19 16 -13 17 -12 4 3 -11 15 -11 19 5 24 11 3 33 12 49 19
45 20 50 19 70 -25z m-180 0 c7 -22 -8 -55 -29 -63 -35 -14 -142 31 -133 56 4
13 50 24 114 26 33 1 43 -3 48 -19z m-376 -84 c-2 -2 -15 -9 -29 -16 -23 -12
-24 -12 -11 3 7 10 20 17 29 17 8 0 13 -2 11 -4z m433 -42 c22 -20 63 -46 90
-59 l50 -23 -43 -32 c-57 -41 -133 -80 -158 -80 -29 0 -34 29 -11 67 26 44 25
51 -1 27 -31 -27 -77 -97 -84 -126 -9 -36 31 -81 73 -81 34 0 107 45 187 115
32 28 45 35 45 23 0 -33 -32 -75 -73 -96 -23 -12 -71 -50 -107 -84 -76 -72
-132 -107 -213 -130 -73 -21 -198 -25 -220 -7 -8 7 -47 16 -86 19 -39 3 -71
10 -71 16 0 5 10 7 23 4 12 -3 67 -8 122 -12 114 -6 260 18 278 46 29 46 -61
158 -149 186 -73 23 -71 43 4 43 33 0 66 -6 76 -13 17 -12 28 -4 117 87 90 92
97 102 83 117 -12 14 -13 18 -2 22 24 10 30 7 70 -29z m-133 6 c-9 -5 -28 -6
-45 0 -27 8 -26 8 16 9 32 0 40 -2 29 -9z m-26 -101 l-88 -87 -78 10 c-70 8
-81 7 -100 -9 -21 -18 -21 -18 -7 2 23 31 25 31 92 24 l63 -6 89 88 c71 70 93
86 104 77 11 -9 -4 -28 -75 -99z m-379 86 c-4 -8 -10 -15 -15 -15 -4 0 -6 7
-3 15 4 8 10 15 15 15 4 0 6 -7 3 -15z m276 1 c0 -3 -4 -8 -10 -11 -5 -3 -10
-1 -10 4 0 6 5 11 10 11 6 0 10 -2 10 -4z m65 -6 c4 -6 11 -8 16 -5 5 4 9 1 9
-4 0 -12 -39 -15 -66 -4 -16 6 -16 7 2 14 27 11 32 10 39 -1z m-267 -13 c1 -4
0 -7 -3 -7 -3 0 -14 0 -26 0 -11 0 -18 4 -15 8 6 10 40 9 44 -1z m118 -35
c-17 -16 -18 -16 -5 5 7 12 15 20 18 17 3 -2 -3 -12 -13 -22z m128 -1 c3 -4
-2 -16 -12 -24 -15 -13 -27 -15 -63 -8 l-44 9 49 1 c46 1 48 2 30 16 -18 14
-18 14 8 15 15 0 29 -4 32 -9z m-278 -10 c-3 -5 -17 -8 -31 -8 -13 0 -22 3
-19 8 3 5 16 9 30 9 14 0 23 -4 20 -9z m-43 -38 c-13 -2 -33 -2 -45 0 -13 2
-3 4 22 4 25 0 35 -2 23 -4z m262 -14 c5 -5 -9 -9 -33 -9 -39 0 -51 8 -36 23
8 8 55 -2 69 -14z m-296 -24 c8 -9 -36 -44 -66 -51 -13 -4 -38 -3 -55 2 l-31
9 39 28 c29 20 47 26 73 22 18 -2 36 -7 40 -10z m-110 -112 c-6 -6 -34 -23
-62 -38 -40 -19 -66 -25 -119 -25 -37 0 -68 4 -68 8 0 15 44 50 86 69 36 16
51 17 107 9 51 -8 64 -13 56 -23z m366 8 c74 -32 127 -120 90 -147 -62 -45
-405 -53 -405 -10 0 27 27 38 67 28 63 -16 125 -23 119 -14 -3 5 -32 13 -63
17 -105 13 -106 14 -2 88 103 73 109 74 194 38z m419 -33 c-29 -49 -50 -68
-74 -68 -30 0 -53 -21 -78 -71 -20 -38 -52 -61 -59 -41 -3 8 -10 6 -21 -7 -26
-31 -115 -51 -211 -49 -47 1 -66 3 -41 5 152 11 252 53 350 148 58 56 110 93
133 95 5 0 5 -6 1 -12z m-859 -89 c114 -1 96 -16 -22 -18 -64 -1 -75 2 -100
25 -25 22 -25 24 -3 10 18 -12 52 -16 125 -17z"/>
<path d="M2244 4172 c-21 -13 -25 -50 -10 -86 14 -34 36 -49 36 -25 0 5 5 7
10 4 6 -3 10 -14 10 -24 0 -10 9 -26 19 -35 18 -16 19 -16 22 21 6 61 1 73
-32 73 -16 0 -29 -5 -29 -11 0 -5 -4 -7 -10 -4 -5 3 -10 13 -10 22 0 13 9 15
47 10 l48 -5 -24 19 c-27 22 -52 24 -70 7 -10 -11 -12 -9 -9 7 2 13 14 22 33
26 27 6 28 7 5 8 -14 0 -30 -3 -36 -7z"/>
<path d="M3582 2657 c-3 -52 -31 -185 -48 -226 -17 -41 -12 -52 10 -19 26 40
47 143 43 215 -2 37 -4 51 -5 30z"/>
<path d="M3313 3458 c-6 -40 -21 -94 -32 -120 -29 -67 -15 -60 16 8 22 48 45
184 32 184 -3 0 -10 -33 -16 -72z"/>
<path d="M3124 3296 c-57 -39 -124 -113 -176 -196 -77 -121 -74 -131 9 -27 32
39 95 114 141 165 46 50 82 92 80 92 -2 0 -26 -15 -54 -34z"/>
<path d="M3230 3173 c0 -16 -94 -156 -137 -204 -25 -28 -31 -38 -17 -31 54 28
181 218 160 239 -3 3 -6 2 -6 -4z"/>
<path d="M3004 3030 c-94 -78 -111 -99 -48 -61 35 21 163 140 152 141 -4 0
-50 -36 -104 -80z"/>
<path d="M2945 2835 c-5 -2 -43 -13 -82 -24 -48 -14 -73 -27 -73 -36 0 -18 2
-18 91 -4 81 12 101 9 153 -26 21 -14 41 -24 44 -21 3 3 -3 24 -14 47 -22 50
-75 79 -119 64z"/>
<path d="M3253 2195 c22 -42 45 -110 58 -170 11 -55 28 -111 36 -125 l14 -25
-5 31 c-3 18 -8 45 -11 60 -6 26 -5 25 18 -11 29 -45 25 -63 -24 -129 l-31
-41 40 41 40 41 13 -24 c16 -30 87 -83 110 -83 49 0 15 59 -97 168 -73 71 -72
83 3 45 36 -18 73 -33 83 -33 24 0 42 24 38 51 -2 17 -13 25 -47 33 -35 9 -51
20 -75 53 -17 23 -47 54 -66 69 -19 15 -57 48 -84 73 l-48 46 35 -70z m107
-90 c43 -44 39 -58 -9 -31 -22 12 -58 76 -43 76 4 0 28 -20 52 -45z m74 -230
c9 -14 13 -25 10 -25 -11 0 -44 32 -44 42 0 16 18 8 34 -17z"/>
<path d="M3010 2093 c0 -16 50 -195 59 -211 5 -10 7 12 5 58 -2 40 -7 76 -12
79 -4 3 -14 21 -21 39 -13 31 -31 52 -31 35z"/>
<path d="M3109 1920 c9 -27 17 -44 19 -39 4 11 -17 77 -27 83 -4 3 0 -17 8
-44z"/>
<path d="M2081 1467 c-13 -21 -12 -21 5 -5 10 10 16 20 13 22 -3 3 -11 -5 -18
-17z"/>
<path d="M1991 1430 c-12 -22 -18 -40 -13 -40 9 0 45 70 39 76 -2 2 -14 -14
-26 -36z"/>
<path d="M3560 1170 c-30 -4 145 -7 390 -8 290 -1 440 2 430 8 -17 11 -731 11
-820 0z"/>
<path d="M3185 840 c142 -9 725 -9 875 0 65 4 -125 7 -435 7 -309 0 -502 -3
-440 -7z"/>
<path d="M3095 790 c-88 -3 63 -7 363 -8 336 -1 512 1 512 8 0 11 -600 11
-875 0z"/>
<path d="M4173 773 c64 -2 170 -2 235 0 64 1 11 3 -118 3 -129 0 -182 -2 -117
-3z"/>
</g>
</svg>